<?xml version="1.0" encoding="utf-8"?>
<!-- Generator: Adobe Illustrator 17.0.0, SVG Export Plug-In . SVG Version: 6.00 Build 0)  -->
<!DOCTYPE svg PUBLIC "-//W3C//DTD SVG 1.1//EN" "http://www.w3.org/Graphics/SVG/1.1/DTD/svg11.dtd">
<svg version="1.1" id="Layer_1" xmlns="http://www.w3.org/2000/svg" xmlns:xlink="http://www.w3.org/1999/xlink" x="0px" y="0px"
	 width="1302.845px" height="864.688px" viewBox="0 0 1302.845 864.688" enable-background="new 0 0 1302.845 864.688"
	 xml:space="preserve">
<g>
	<g>
		<g>
			<g>
				
					<path fill="none" stroke="#000000" stroke-width="7.8075" stroke-linecap="round" stroke-linejoin="round" stroke-miterlimit="10" d="
					M1302.874,391.541c29.054,0,17.431,52.776,46.485,52.776c29.053,0,17.43-52.776,46.484-52.776
					c29.057,0,17.436,52.776,46.493,52.776s17.436-52.776,46.493-52.776"/>
				
					<polyline fill="none" stroke="#000000" stroke-width="7.983" stroke-linecap="round" stroke-linejoin="round" stroke-miterlimit="10" points="
					1488.829,329.628 1439.157,408.533 1395.844,346.603 1352.544,408.533 1302.874,329.628 				"/>
				
					<path fill="none" stroke="#000000" stroke-width="8.1731" stroke-linecap="round" stroke-linejoin="round" stroke-miterlimit="10" d="
					M1302.874,440.397c23.243,0-1.829,53.927,22.328,53.927c20.945,0,5.669-37.567,24.153-37.567s3.219,76.294,24.162,76.294
					c24.159,0-0.91-92.654,22.335-92.654c23.243,0-1.829,92.654,22.328,92.654c20.945,0,5.669-76.294,24.153-76.294
					s3.218,37.567,24.162,37.567c24.159,0-0.911-53.927,22.335-53.927"/>
			</g>
		</g>
		<g>
			<g>
				
					<path fill="none" stroke="#000000" stroke-width="7.8075" stroke-linecap="round" stroke-linejoin="round" stroke-miterlimit="10" d="
					M1116.89,391.541c29.054,0,17.431,52.776,46.485,52.776c29.053,0,17.43-52.776,46.484-52.776
					c29.057,0,17.436,52.776,46.493,52.776s17.436-52.776,46.493-52.776"/>
				
					<polyline fill="none" stroke="#000000" stroke-width="7.983" stroke-linecap="round" stroke-linejoin="round" stroke-miterlimit="10" points="
					1302.845,329.628 1253.173,408.533 1209.86,346.603 1166.56,408.533 1116.89,329.628 				"/>
				
					<path fill="none" stroke="#000000" stroke-width="8.1731" stroke-linecap="round" stroke-linejoin="round" stroke-miterlimit="10" d="
					M1116.89,440.397c23.243,0-1.829,53.927,22.328,53.927c20.945,0,5.669-37.567,24.153-37.567s3.218,76.294,24.162,76.294
					c24.159,0-0.91-92.654,22.335-92.654c23.243,0-1.829,92.654,22.328,92.654c20.945,0,5.669-76.294,24.153-76.294
					s3.218,37.567,24.162,37.567c24.159,0-0.91-53.927,22.335-53.927"/>
			</g>
		</g>
		<g>
			<g>
				
					<path fill="none" stroke="#000000" stroke-width="7.8075" stroke-linecap="round" stroke-linejoin="round" stroke-miterlimit="10" d="
					M930.567,391.541c29.054,0,17.431,52.776,46.486,52.776c29.053,0,17.43-52.776,46.484-52.776
					c29.057,0,17.436,52.776,46.493,52.776c29.057,0,17.436-52.776,46.493-52.776"/>
				
					<polyline fill="none" stroke="#000000" stroke-width="7.983" stroke-linecap="round" stroke-linejoin="round" stroke-miterlimit="10" points="
					1116.522,329.628 1066.85,408.533 1023.538,346.603 980.238,408.533 930.568,329.628 				"/>
				
					<path fill="none" stroke="#000000" stroke-width="8.1731" stroke-linecap="round" stroke-linejoin="round" stroke-miterlimit="10" d="
					M930.567,440.397c23.243,0-1.829,53.927,22.328,53.927c20.945,0,5.669-37.567,24.153-37.567
					c18.484,0,3.218,76.294,24.162,76.294c24.159,0-0.91-92.654,22.336-92.654c23.243,0-1.829,92.654,22.328,92.654
					c20.945,0,5.669-76.294,24.153-76.294c18.484,0,3.218,37.567,24.162,37.567c24.159,0-0.91-53.927,22.335-53.927"/>
			</g>
		</g>
		<g>
			<g>
				<g>
					
						<path fill="none" stroke="#000000" stroke-width="7.8075" stroke-linecap="round" stroke-linejoin="round" stroke-miterlimit="10" d="
						M1302.874,100.056c29.054,0,17.431,52.776,46.485,52.776c29.053,0,17.43-52.776,46.484-52.776
						c29.057,0,17.436,52.776,46.493,52.776s17.436-52.776,46.493-52.776"/>
					
						<polyline fill="none" stroke="#000000" stroke-width="7.983" stroke-linecap="round" stroke-linejoin="round" stroke-miterlimit="10" points="
						1488.829,38.143 1439.157,117.048 1395.844,55.117 1352.544,117.048 1302.874,38.143 					"/>
					
						<path fill="none" stroke="#000000" stroke-width="8.1731" stroke-linecap="round" stroke-linejoin="round" stroke-miterlimit="10" d="
						M1302.874,148.912c23.243,0-1.829,53.927,22.328,53.927c20.945,0,5.669-37.567,24.153-37.567s3.219,76.294,24.162,76.294
						c24.159,0-0.91-92.654,22.335-92.654c23.243,0-1.829,92.654,22.328,92.654c20.945,0,5.669-76.294,24.153-76.294
						s3.218,37.567,24.162,37.567c24.159,0-0.911-53.927,22.335-53.927"/>
					
						<polyline fill="none" stroke="#000000" stroke-width="5.3052" stroke-linecap="round" stroke-linejoin="round" stroke-miterlimit="10" points="
						1488.829,219.231 1437.545,383.132 1395.852,289.582 1354.158,383.132 1302.874,219.231 					"/>
				</g>
				
					<path fill="none" stroke="#000000" stroke-width="6.9115" stroke-linecap="round" stroke-linejoin="round" stroke-miterlimit="10" d="
					M1488.829,305.06c4.854,0,8.789-3.982,8.789-8.894c0-2.135-0.743-4.094-1.982-5.627l-6.437-7.825l-32.269-39.29v0.002
					l-33.543,45.259l-2.33,3.151c-1.016,1.372-1.418,3.171-1.418,5.009c0,4.745,3.846,8.591,8.591,8.591
					c4.745,0,8.591-3.846,8.591-8.591c0-1.81-0.56-3.49-1.516-4.875l-0.63-0.911l-38.809-47.254l-38.81,47.254l-0.63,0.911
					c-0.956,1.385-1.516,3.064-1.516,4.875c0,4.745,3.846,8.591,8.591,8.591s8.591-3.846,8.591-8.591
					c0-1.838-0.457-3.616-1.472-4.989l-2.328-3.152l-33.521-45.276v-0.002l-32.269,39.29l-6.436,7.825
					c-1.239,1.533-1.982,3.492-1.982,5.627c0,4.912,3.935,8.894,8.789,8.894"/>
			</g>
			<g>
				<g>
					
						<path fill="none" stroke="#000000" stroke-width="7.8075" stroke-linecap="round" stroke-linejoin="round" stroke-miterlimit="10" d="
						M1116.89,100.056c29.054,0,17.431,52.776,46.485,52.776c29.053,0,17.43-52.776,46.484-52.776
						c29.057,0,17.436,52.776,46.493,52.776s17.436-52.776,46.493-52.776"/>
					
						<polyline fill="none" stroke="#000000" stroke-width="7.983" stroke-linecap="round" stroke-linejoin="round" stroke-miterlimit="10" points="
						1302.845,38.143 1253.173,117.048 1209.86,55.117 1166.56,117.048 1116.89,38.143 					"/>
					
						<path fill="none" stroke="#000000" stroke-width="8.1731" stroke-linecap="round" stroke-linejoin="round" stroke-miterlimit="10" d="
						M1116.89,148.912c23.243,0-1.829,53.927,22.328,53.927c20.945,0,5.669-37.567,24.153-37.567s3.218,76.294,24.162,76.294
						c24.159,0-0.91-92.654,22.335-92.654c23.243,0-1.829,92.654,22.328,92.654c20.945,0,5.669-76.294,24.153-76.294
						s3.218,37.567,24.162,37.567c24.159,0-0.91-53.927,22.335-53.927"/>
					
						<polyline fill="none" stroke="#000000" stroke-width="5.3052" stroke-linecap="round" stroke-linejoin="round" stroke-miterlimit="10" points="
						1302.845,219.231 1251.561,383.132 1209.868,289.582 1168.174,383.132 1116.89,219.231 					"/>
				</g>
				
					<path fill="none" stroke="#000000" stroke-width="6.9115" stroke-linecap="round" stroke-linejoin="round" stroke-miterlimit="10" d="
					M1302.845,305.06c4.854,0,8.789-3.982,8.789-8.894c0-2.135-0.743-4.094-1.982-5.627l-6.437-7.825l-32.269-39.29v0.002
					l-33.543,45.259l-2.33,3.151c-1.017,1.372-1.418,3.171-1.418,5.009c0,4.745,3.846,8.591,8.591,8.591
					c4.745,0,8.591-3.846,8.591-8.591c0-1.81-0.56-3.49-1.516-4.875l-0.63-0.911l-38.809-47.254l-38.81,47.254l-0.63,0.911
					c-0.956,1.385-1.516,3.064-1.516,4.875c0,4.745,3.846,8.591,8.591,8.591c4.745,0,8.591-3.846,8.591-8.591
					c0-1.838-0.457-3.616-1.472-4.989l-2.328-3.152l-33.521-45.276v-0.002l-32.269,39.29l-6.436,7.825
					c-1.239,1.533-1.982,3.492-1.982,5.627c0,4.912,3.935,8.894,8.788,8.894"/>
			</g>
			<g>
				<g>
					
						<path fill="none" stroke="#000000" stroke-width="7.8075" stroke-linecap="round" stroke-linejoin="round" stroke-miterlimit="10" d="
						M930.567,100.056c29.054,0,17.431,52.776,46.486,52.776c29.053,0,17.43-52.776,46.484-52.776
						c29.057,0,17.436,52.776,46.493,52.776c29.057,0,17.436-52.776,46.493-52.776"/>
					
						<polyline fill="none" stroke="#000000" stroke-width="7.983" stroke-linecap="round" stroke-linejoin="round" stroke-miterlimit="10" points="
						1116.522,38.143 1066.85,117.048 1023.538,55.117 980.238,117.048 930.568,38.143 					"/>
					
						<path fill="none" stroke="#000000" stroke-width="8.1731" stroke-linecap="round" stroke-linejoin="round" stroke-miterlimit="10" d="
						M930.567,148.912c23.243,0-1.829,53.927,22.328,53.927c20.945,0,5.669-37.567,24.153-37.567
						c18.484,0,3.218,76.294,24.162,76.294c24.159,0-0.91-92.654,22.336-92.654c23.243,0-1.829,92.654,22.328,92.654
						c20.945,0,5.669-76.294,24.153-76.294c18.484,0,3.218,37.567,24.162,37.567c24.159,0-0.91-53.927,22.335-53.927"/>
					
						<polyline fill="none" stroke="#000000" stroke-width="5.3052" stroke-linecap="round" stroke-linejoin="round" stroke-miterlimit="10" points="
						1116.523,219.231 1065.239,383.132 1023.545,289.582 981.852,383.132 930.567,219.231 					"/>
				</g>
				
					<path fill="none" stroke="#000000" stroke-width="6.9115" stroke-linecap="round" stroke-linejoin="round" stroke-miterlimit="10" d="
					M1116.523,305.06c4.854,0,8.789-3.982,8.789-8.894c0-2.135-0.743-4.094-1.982-5.627l-6.436-7.825l-32.269-39.29v0.002
					l-33.544,45.259l-2.33,3.151c-1.016,1.372-1.418,3.171-1.418,5.009c0,4.745,3.846,8.591,8.591,8.591s8.591-3.846,8.591-8.591
					c0-1.81-0.56-3.49-1.516-4.875l-0.63-0.911l-38.809-47.254l-38.81,47.254l-0.63,0.911c-0.956,1.385-1.516,3.064-1.516,4.875
					c0,4.745,3.846,8.591,8.591,8.591s8.591-3.846,8.591-8.591c0-1.838-0.457-3.616-1.472-4.989l-2.328-3.152l-33.521-45.276v-0.002
					l-32.269,39.29l-6.436,7.825c-1.239,1.533-1.982,3.492-1.982,5.627c0,4.912,3.935,8.894,8.789,8.894"/>
			</g>
		</g>
	</g>
</g>
<g>
	<g>
		<g>
			<g>
				
					<path fill="none" stroke="#000000" stroke-width="7.8075" stroke-linecap="round" stroke-linejoin="round" stroke-miterlimit="10" d="
					M744.613,391.541c29.054,0,17.431,52.776,46.486,52.776c29.053,0,17.43-52.776,46.484-52.776
					c29.057,0,17.436,52.776,46.493,52.776s17.436-52.776,46.493-52.776"/>
				
					<polyline fill="none" stroke="#000000" stroke-width="7.983" stroke-linecap="round" stroke-linejoin="round" stroke-miterlimit="10" points="
					930.568,329.628 880.896,408.533 837.583,346.603 794.283,408.533 744.613,329.628 				"/>
				
					<path fill="none" stroke="#000000" stroke-width="8.1731" stroke-linecap="round" stroke-linejoin="round" stroke-miterlimit="10" d="
					M744.613,440.397c23.243,0-1.829,53.927,22.328,53.927c20.945,0,5.669-37.567,24.153-37.567
					c18.484,0,3.218,76.294,24.162,76.294c24.159,0-0.91-92.654,22.335-92.654c23.243,0-1.829,92.654,22.328,92.654
					c20.945,0,5.669-76.294,24.153-76.294c18.484,0,3.219,37.567,24.162,37.567c24.159,0-0.91-53.927,22.336-53.927"/>
			</g>
		</g>
		<g>
			<g>
				
					<path fill="none" stroke="#000000" stroke-width="7.8075" stroke-linecap="round" stroke-linejoin="round" stroke-miterlimit="10" d="
					M558.629,391.541c29.054,0,17.431,52.776,46.486,52.776c29.053,0,17.43-52.776,46.484-52.776
					c29.057,0,17.436,52.776,46.493,52.776s17.436-52.776,46.493-52.776"/>
				
					<polyline fill="none" stroke="#000000" stroke-width="7.983" stroke-linecap="round" stroke-linejoin="round" stroke-miterlimit="10" points="
					744.584,329.628 694.912,408.533 651.599,346.603 608.299,408.533 558.629,329.628 				"/>
				
					<path fill="none" stroke="#000000" stroke-width="8.1731" stroke-linecap="round" stroke-linejoin="round" stroke-miterlimit="10" d="
					M558.629,440.397c23.243,0-1.829,53.927,22.328,53.927c20.945,0,5.669-37.567,24.153-37.567
					c18.484,0,3.218,76.294,24.162,76.294c24.159,0-0.911-92.654,22.335-92.654c23.243,0-1.829,92.654,22.328,92.654
					c20.945,0,5.669-76.294,24.153-76.294c18.484,0,3.219,37.567,24.162,37.567c24.159,0-0.91-53.927,22.335-53.927"/>
			</g>
		</g>
		<g>
			<g>
				
					<path fill="none" stroke="#000000" stroke-width="7.8075" stroke-linecap="round" stroke-linejoin="round" stroke-miterlimit="10" d="
					M372.306,391.541c29.054,0,17.431,52.776,46.485,52.776c29.053,0,17.43-52.776,46.484-52.776
					c29.057,0,17.436,52.776,46.493,52.776c29.057,0,17.436-52.776,46.493-52.776"/>
				
					<polyline fill="none" stroke="#000000" stroke-width="7.983" stroke-linecap="round" stroke-linejoin="round" stroke-miterlimit="10" points="
					558.261,329.628 508.589,408.533 465.277,346.603 421.977,408.533 372.307,329.628 				"/>
				
					<path fill="none" stroke="#000000" stroke-width="8.1731" stroke-linecap="round" stroke-linejoin="round" stroke-miterlimit="10" d="
					M372.306,440.397c23.243,0-1.829,53.927,22.328,53.927c20.945,0,5.669-37.567,24.153-37.567
					c18.484,0,3.218,76.294,24.162,76.294c24.159,0-0.91-92.654,22.335-92.654c23.243,0-1.829,92.654,22.328,92.654
					c20.945,0,5.669-76.294,24.153-76.294s3.218,37.567,24.162,37.567c24.159,0-0.91-53.927,22.336-53.927"/>
			</g>
		</g>
		<g>
			<g>
				<g>
					
						<path fill="none" stroke="#000000" stroke-width="7.8075" stroke-linecap="round" stroke-linejoin="round" stroke-miterlimit="10" d="
						M744.613,100.056c29.054,0,17.431,52.776,46.486,52.776c29.053,0,17.43-52.776,46.484-52.776
						c29.057,0,17.436,52.776,46.493,52.776s17.436-52.776,46.493-52.776"/>
					
						<polyline fill="none" stroke="#000000" stroke-width="7.983" stroke-linecap="round" stroke-linejoin="round" stroke-miterlimit="10" points="
						930.568,38.143 880.896,117.048 837.583,55.117 794.283,117.048 744.613,38.143 					"/>
					
						<path fill="none" stroke="#000000" stroke-width="8.1731" stroke-linecap="round" stroke-linejoin="round" stroke-miterlimit="10" d="
						M744.613,148.912c23.243,0-1.829,53.927,22.328,53.927c20.945,0,5.669-37.567,24.153-37.567
						c18.484,0,3.218,76.294,24.162,76.294c24.159,0-0.91-92.654,22.335-92.654c23.243,0-1.829,92.654,22.328,92.654
						c20.945,0,5.669-76.294,24.153-76.294c18.484,0,3.219,37.567,24.162,37.567c24.159,0-0.91-53.927,22.336-53.927"/>
					
						<polyline fill="none" stroke="#000000" stroke-width="5.3052" stroke-linecap="round" stroke-linejoin="round" stroke-miterlimit="10" points="
						930.568,219.231 879.284,383.132 837.591,289.582 795.897,383.132 744.613,219.231 					"/>
				</g>
				
					<path fill="none" stroke="#000000" stroke-width="6.9115" stroke-linecap="round" stroke-linejoin="round" stroke-miterlimit="10" d="
					M930.568,305.06c4.854,0,8.789-3.982,8.789-8.894c0-2.135-0.743-4.094-1.982-5.627l-6.437-7.825l-32.269-39.29v0.002
					l-33.544,45.259l-2.33,3.151c-1.017,1.372-1.418,3.171-1.418,5.009c0,4.745,3.846,8.591,8.591,8.591s8.591-3.846,8.591-8.591
					c0-1.81-0.56-3.49-1.516-4.875l-0.63-0.911l-38.809-47.254l-38.81,47.254l-0.63,0.911c-0.956,1.385-1.516,3.064-1.516,4.875
					c0,4.745,3.846,8.591,8.591,8.591c4.745,0,8.591-3.846,8.591-8.591c0-1.838-0.457-3.616-1.472-4.989l-2.328-3.152
					l-33.521-45.276v-0.002l-32.269,39.29l-6.436,7.825c-1.239,1.533-1.982,3.492-1.982,5.627c0,4.912,3.935,8.894,8.788,8.894"/>
			</g>
			<g>
				<g>
					
						<path fill="none" stroke="#000000" stroke-width="7.8075" stroke-linecap="round" stroke-linejoin="round" stroke-miterlimit="10" d="
						M558.629,100.056c29.054,0,17.431,52.776,46.486,52.776c29.053,0,17.43-52.776,46.484-52.776
						c29.057,0,17.436,52.776,46.493,52.776s17.436-52.776,46.493-52.776"/>
					
						<polyline fill="none" stroke="#000000" stroke-width="7.983" stroke-linecap="round" stroke-linejoin="round" stroke-miterlimit="10" points="
						744.584,38.143 694.912,117.048 651.599,55.117 608.299,117.048 558.629,38.143 					"/>
					
						<path fill="none" stroke="#000000" stroke-width="8.1731" stroke-linecap="round" stroke-linejoin="round" stroke-miterlimit="10" d="
						M558.629,148.912c23.243,0-1.829,53.927,22.328,53.927c20.945,0,5.669-37.567,24.153-37.567
						c18.484,0,3.218,76.294,24.162,76.294c24.159,0-0.911-92.654,22.335-92.654c23.243,0-1.829,92.654,22.328,92.654
						c20.945,0,5.669-76.294,24.153-76.294c18.484,0,3.219,37.567,24.162,37.567c24.159,0-0.91-53.927,22.335-53.927"/>
					
						<polyline fill="none" stroke="#000000" stroke-width="5.3052" stroke-linecap="round" stroke-linejoin="round" stroke-miterlimit="10" points="
						744.584,219.231 693.3,383.132 651.607,289.582 609.913,383.132 558.629,219.231 					"/>
				</g>
				
					<path fill="none" stroke="#000000" stroke-width="6.9115" stroke-linecap="round" stroke-linejoin="round" stroke-miterlimit="10" d="
					M744.584,305.06c4.854,0,8.789-3.982,8.789-8.894c0-2.135-0.743-4.094-1.982-5.627l-6.437-7.825l-32.269-39.29v0.002
					l-33.544,45.259l-2.33,3.151c-1.017,1.372-1.418,3.171-1.418,5.009c0,4.745,3.846,8.591,8.591,8.591s8.591-3.846,8.591-8.591
					c0-1.81-0.56-3.49-1.516-4.875l-0.63-0.911l-38.809-47.254l-38.81,47.254l-0.63,0.911c-0.956,1.385-1.516,3.064-1.516,4.875
					c0,4.745,3.846,8.591,8.591,8.591c4.745,0,8.591-3.846,8.591-8.591c0-1.838-0.457-3.616-1.472-4.989l-2.328-3.152
					l-33.521-45.276v-0.002l-32.269,39.29l-6.437,7.825c-1.239,1.533-1.982,3.492-1.982,5.627c0,4.912,3.935,8.894,8.789,8.894"/>
			</g>
			<g>
				<g>
					
						<path fill="none" stroke="#000000" stroke-width="7.8075" stroke-linecap="round" stroke-linejoin="round" stroke-miterlimit="10" d="
						M372.306,100.056c29.054,0,17.431,52.776,46.485,52.776c29.053,0,17.43-52.776,46.484-52.776
						c29.057,0,17.436,52.776,46.493,52.776c29.057,0,17.436-52.776,46.493-52.776"/>
					
						<polyline fill="none" stroke="#000000" stroke-width="7.983" stroke-linecap="round" stroke-linejoin="round" stroke-miterlimit="10" points="
						558.261,38.143 508.589,117.048 465.277,55.117 421.977,117.048 372.307,38.143 					"/>
					
						<path fill="none" stroke="#000000" stroke-width="8.1731" stroke-linecap="round" stroke-linejoin="round" stroke-miterlimit="10" d="
						M372.306,148.912c23.243,0-1.829,53.927,22.328,53.927c20.945,0,5.669-37.567,24.153-37.567
						c18.484,0,3.218,76.294,24.162,76.294c24.159,0-0.91-92.654,22.335-92.654c23.243,0-1.829,92.654,22.328,92.654
						c20.945,0,5.669-76.294,24.153-76.294s3.218,37.567,24.162,37.567c24.159,0-0.91-53.927,22.336-53.927"/>
					
						<polyline fill="none" stroke="#000000" stroke-width="5.3052" stroke-linecap="round" stroke-linejoin="round" stroke-miterlimit="10" points="
						558.262,219.231 506.978,383.132 465.284,289.582 423.59,383.132 372.306,219.231 					"/>
				</g>
				
					<path fill="none" stroke="#000000" stroke-width="6.9115" stroke-linecap="round" stroke-linejoin="round" stroke-miterlimit="10" d="
					M558.262,305.06c4.854,0,8.789-3.982,8.789-8.894c0-2.135-0.743-4.094-1.982-5.627l-6.436-7.825l-32.269-39.29v0.002
					l-33.544,45.259l-2.33,3.151c-1.017,1.372-1.418,3.171-1.418,5.009c0,4.745,3.846,8.591,8.591,8.591
					c4.745,0,8.591-3.846,8.591-8.591c0-1.81-0.56-3.49-1.516-4.875l-0.63-0.911l-38.809-47.254l-38.81,47.254l-0.63,0.911
					c-0.956,1.385-1.516,3.064-1.516,4.875c0,4.745,3.846,8.591,8.591,8.591c4.745,0,8.591-3.846,8.591-8.591
					c0-1.838-0.457-3.616-1.473-4.989l-2.328-3.152l-33.521-45.276v-0.002l-32.269,39.29l-6.436,7.825
					c-1.239,1.533-1.982,3.492-1.982,5.627c0,4.912,3.935,8.894,8.788,8.894"/>
			</g>
		</g>
	</g>
</g>
<g>
	<g>
		<g>
			<g>
				
					<path fill="none" stroke="#000000" stroke-width="7.8075" stroke-linecap="round" stroke-linejoin="round" stroke-miterlimit="10" d="
					M186.352,391.541c29.054,0,17.431,52.776,46.486,52.776c29.053,0,17.43-52.776,46.484-52.776
					c29.057,0,17.436,52.776,46.493,52.776c29.057,0,17.436-52.776,46.493-52.776"/>
				
					<polyline fill="none" stroke="#000000" stroke-width="7.983" stroke-linecap="round" stroke-linejoin="round" stroke-miterlimit="10" points="
					372.307,329.628 322.634,408.533 279.322,346.603 236.022,408.533 186.352,329.628 				"/>
				
					<path fill="none" stroke="#000000" stroke-width="8.1731" stroke-linecap="round" stroke-linejoin="round" stroke-miterlimit="10" d="
					M186.352,440.397c23.243,0-1.829,53.927,22.328,53.927c20.945,0,5.669-37.567,24.153-37.567s3.218,76.294,24.162,76.294
					c24.159,0-0.91-92.654,22.336-92.654c23.243,0-1.829,92.654,22.328,92.654c20.945,0,5.669-76.294,24.153-76.294
					c18.484,0,3.218,37.567,24.162,37.567c24.159,0-0.91-53.927,22.335-53.927"/>
			</g>
		</g>
		<g>
			<g>
				
					<path fill="none" stroke="#000000" stroke-width="7.8075" stroke-linecap="round" stroke-linejoin="round" stroke-miterlimit="10" d="
					M0.368,391.541c29.054,0,17.431,52.776,46.486,52.776c29.053,0,17.43-52.776,46.484-52.776
					c29.057,0,17.436,52.776,46.493,52.776s17.436-52.776,46.493-52.776"/>
				
					<polyline fill="none" stroke="#000000" stroke-width="7.983" stroke-linecap="round" stroke-linejoin="round" stroke-miterlimit="10" points="
					186.323,329.628 136.65,408.533 93.338,346.603 50.038,408.533 0.368,329.628 				"/>
				
					<path fill="none" stroke="#000000" stroke-width="8.1731" stroke-linecap="round" stroke-linejoin="round" stroke-miterlimit="10" d="
					M0.368,440.397c23.243,0-1.829,53.927,22.328,53.927c20.945,0,5.669-37.567,24.153-37.567c18.484,0,3.219,76.294,24.162,76.294
					c24.159,0-0.91-92.654,22.335-92.654c23.243,0-1.829,92.654,22.328,92.654c20.945,0,5.669-76.294,24.153-76.294
					s3.218,37.567,24.162,37.567c24.159,0-0.91-53.927,22.335-53.927"/>
			</g>
		</g>
		<g>
			<g>
				
					<path fill="none" stroke="#000000" stroke-width="7.8075" stroke-linecap="round" stroke-linejoin="round" stroke-miterlimit="10" d="
					M-185.955,391.541c29.054,0,17.431,52.776,46.486,52.776c29.053,0,17.43-52.776,46.484-52.776
					c29.057,0,17.436,52.776,46.493,52.776s17.436-52.776,46.493-52.776"/>
				
					<polyline fill="none" stroke="#000000" stroke-width="7.983" stroke-linecap="round" stroke-linejoin="round" stroke-miterlimit="10" points="
					0,329.628 -49.672,408.533 -92.984,346.603 -136.285,408.533 -185.955,329.628 				"/>
				
					<path fill="none" stroke="#000000" stroke-width="8.1731" stroke-linecap="round" stroke-linejoin="round" stroke-miterlimit="10" d="
					M-185.955,440.397c23.243,0-1.829,53.927,22.328,53.927c20.945,0,5.669-37.567,24.153-37.567s3.218,76.294,24.162,76.294
					c24.159,0-0.91-92.654,22.335-92.654c23.243,0-1.829,92.654,22.328,92.654c20.945,0,5.669-76.294,24.153-76.294
					c18.484,0,3.218,37.567,24.162,37.567c24.159,0-0.91-53.927,22.335-53.927"/>
			</g>
		</g>
		<g>
			<g>
				<g>
					
						<path fill="none" stroke="#000000" stroke-width="7.8075" stroke-linecap="round" stroke-linejoin="round" stroke-miterlimit="10" d="
						M186.352,100.056c29.054,0,17.431,52.776,46.486,52.776c29.053,0,17.43-52.776,46.484-52.776
						c29.057,0,17.436,52.776,46.493,52.776c29.057,0,17.436-52.776,46.493-52.776"/>
					
						<polyline fill="none" stroke="#000000" stroke-width="7.983" stroke-linecap="round" stroke-linejoin="round" stroke-miterlimit="10" points="
						372.307,38.143 322.634,117.048 279.322,55.117 236.022,117.048 186.352,38.143 					"/>
					
						<path fill="none" stroke="#000000" stroke-width="8.1731" stroke-linecap="round" stroke-linejoin="round" stroke-miterlimit="10" d="
						M186.352,148.912c23.243,0-1.829,53.927,22.328,53.927c20.945,0,5.669-37.567,24.153-37.567s3.218,76.294,24.162,76.294
						c24.159,0-0.91-92.654,22.336-92.654c23.243,0-1.829,92.654,22.328,92.654c20.945,0,5.669-76.294,24.153-76.294
						c18.484,0,3.218,37.567,24.162,37.567c24.159,0-0.91-53.927,22.335-53.927"/>
					
						<polyline fill="none" stroke="#000000" stroke-width="5.3052" stroke-linecap="round" stroke-linejoin="round" stroke-miterlimit="10" points="
						372.307,219.231 321.023,383.132 279.329,289.582 237.636,383.132 186.352,219.231 					"/>
				</g>
				
					<path fill="none" stroke="#000000" stroke-width="6.9115" stroke-linecap="round" stroke-linejoin="round" stroke-miterlimit="10" d="
					M372.307,305.06c4.854,0,8.789-3.982,8.789-8.894c0-2.135-0.743-4.094-1.982-5.627l-6.436-7.825l-32.269-39.29v0.002
					l-33.543,45.259l-2.33,3.151c-1.017,1.372-1.418,3.171-1.418,5.009c0,4.745,3.846,8.591,8.591,8.591s8.591-3.846,8.591-8.591
					c0-1.81-0.56-3.49-1.516-4.875l-0.63-0.911l-38.809-47.254l-38.81,47.254l-0.63,0.911c-0.956,1.385-1.516,3.064-1.516,4.875
					c0,4.745,3.846,8.591,8.591,8.591c4.745,0,8.591-3.846,8.591-8.591c0-1.838-0.457-3.616-1.472-4.989l-2.328-3.152
					l-33.521-45.276v-0.002l-32.269,39.29l-6.437,7.825c-1.239,1.533-1.982,3.492-1.982,5.627c0,4.912,3.935,8.894,8.788,8.894"/>
			</g>
			<g>
				<g>
					
						<path fill="none" stroke="#000000" stroke-width="7.8075" stroke-linecap="round" stroke-linejoin="round" stroke-miterlimit="10" d="
						M0.368,100.056c29.054,0,17.431,52.776,46.486,52.776c29.053,0,17.43-52.776,46.484-52.776
						c29.057,0,17.436,52.776,46.493,52.776s17.436-52.776,46.493-52.776"/>
					
						<polyline fill="none" stroke="#000000" stroke-width="7.983" stroke-linecap="round" stroke-linejoin="round" stroke-miterlimit="10" points="
						186.323,38.143 136.65,117.048 93.338,55.117 50.038,117.048 0.368,38.143 					"/>
					
						<path fill="none" stroke="#000000" stroke-width="8.1731" stroke-linecap="round" stroke-linejoin="round" stroke-miterlimit="10" d="
						M0.368,148.912c23.243,0-1.829,53.927,22.328,53.927c20.945,0,5.669-37.567,24.153-37.567c18.484,0,3.219,76.294,24.162,76.294
						c24.159,0-0.91-92.654,22.335-92.654c23.243,0-1.829,92.654,22.328,92.654c20.945,0,5.669-76.294,24.153-76.294
						s3.218,37.567,24.162,37.567c24.159,0-0.91-53.927,22.335-53.927"/>
					
						<polyline fill="none" stroke="#000000" stroke-width="5.3052" stroke-linecap="round" stroke-linejoin="round" stroke-miterlimit="10" points="
						186.323,219.231 135.039,383.132 93.345,289.582 51.652,383.132 0.368,219.231 					"/>
				</g>
				
					<path fill="none" stroke="#000000" stroke-width="6.9115" stroke-linecap="round" stroke-linejoin="round" stroke-miterlimit="10" d="
					M186.323,305.06c4.854,0,8.788-3.982,8.788-8.894c0-2.135-0.743-4.094-1.982-5.627l-6.436-7.825l-32.269-39.29v0.002
					l-33.543,45.259l-2.33,3.151c-1.017,1.372-1.418,3.171-1.418,5.009c0,4.745,3.846,8.591,8.591,8.591
					c4.745,0,8.591-3.846,8.591-8.591c0-1.81-0.56-3.49-1.516-4.875l-0.63-0.911l-38.809-47.254l-38.81,47.254l-0.63,0.911
					c-0.956,1.385-1.516,3.064-1.516,4.875c0,4.745,3.846,8.591,8.591,8.591s8.591-3.846,8.591-8.591
					c0-1.838-0.457-3.616-1.472-4.989l-2.328-3.152l-33.521-45.276v-0.002l-32.269,39.29l-6.437,7.825
					c-1.239,1.533-1.982,3.492-1.982,5.627c0,4.912,3.935,8.894,8.789,8.894"/>
			</g>
			<g>
				<g>
					
						<path fill="none" stroke="#000000" stroke-width="7.8075" stroke-linecap="round" stroke-linejoin="round" stroke-miterlimit="10" d="
						M-185.955,100.056c29.054,0,17.431,52.776,46.486,52.776c29.053,0,17.43-52.776,46.484-52.776
						c29.057,0,17.436,52.776,46.493,52.776s17.436-52.776,46.493-52.776"/>
					
						<polyline fill="none" stroke="#000000" stroke-width="7.983" stroke-linecap="round" stroke-linejoin="round" stroke-miterlimit="10" points="
						0,38.143 -49.672,117.048 -92.984,55.117 -136.285,117.048 -185.955,38.143 					"/>
					
						<path fill="none" stroke="#000000" stroke-width="8.1731" stroke-linecap="round" stroke-linejoin="round" stroke-miterlimit="10" d="
						M-185.955,148.912c23.243,0-1.829,53.927,22.328,53.927c20.945,0,5.669-37.567,24.153-37.567s3.218,76.294,24.162,76.294
						c24.159,0-0.91-92.654,22.335-92.654c23.243,0-1.829,92.654,22.328,92.654c20.945,0,5.669-76.294,24.153-76.294
						c18.484,0,3.218,37.567,24.162,37.567c24.159,0-0.91-53.927,22.335-53.927"/>
					
						<polyline fill="none" stroke="#000000" stroke-width="5.3052" stroke-linecap="round" stroke-linejoin="round" stroke-miterlimit="10" points="
						0.001,219.231 -51.284,383.132 -92.977,289.582 -134.671,383.132 -185.955,219.231 					"/>
				</g>
				
					<path fill="none" stroke="#000000" stroke-width="6.9115" stroke-linecap="round" stroke-linejoin="round" stroke-miterlimit="10" d="
					M0.001,305.06c4.854,0,8.788-3.982,8.788-8.894c0-2.135-0.743-4.094-1.982-5.627l-6.437-7.825l-32.269-39.29v0.002
					l-33.543,45.259l-2.33,3.151c-1.017,1.372-1.418,3.171-1.418,5.009c0,4.745,3.846,8.591,8.591,8.591s8.591-3.846,8.591-8.591
					c0-1.81-0.56-3.49-1.516-4.875l-0.63-0.911l-38.809-47.254l-38.81,47.254l-0.63,0.911c-0.956,1.385-1.516,3.064-1.516,4.875
					c0,4.745,3.846,8.591,8.591,8.591c4.745,0,8.591-3.846,8.591-8.591c0-1.838-0.457-3.616-1.472-4.989l-2.328-3.152
					l-33.521-45.276v-0.002l-32.269,39.29l-6.437,7.825c-1.239,1.533-1.982,3.492-1.982,5.627c0,4.912,3.935,8.894,8.789,8.894"/>
			</g>
		</g>
	</g>
</g>
<g>
	<g>
		<g>
			<g>
				
					<path fill="none" stroke="#000000" stroke-width="7.8075" stroke-linecap="round" stroke-linejoin="round" stroke-miterlimit="10" d="
					M1302.874,683.026c29.054,0,17.431,52.776,46.485,52.776c29.053,0,17.43-52.776,46.484-52.776
					c29.057,0,17.436,52.776,46.493,52.776s17.436-52.776,46.493-52.776"/>
				
					<polyline fill="none" stroke="#000000" stroke-width="7.983" stroke-linecap="round" stroke-linejoin="round" stroke-miterlimit="10" points="
					1488.829,621.113 1439.157,700.018 1395.844,638.088 1352.544,700.018 1302.874,621.113 				"/>
				
					<path fill="none" stroke="#000000" stroke-width="8.1731" stroke-linecap="round" stroke-linejoin="round" stroke-miterlimit="10" d="
					M1302.874,731.882c23.243,0-1.829,53.927,22.328,53.927c20.945,0,5.669-37.567,24.153-37.567s3.219,76.294,24.162,76.294
					c24.159,0-0.91-92.655,22.335-92.655c23.243,0-1.829,92.655,22.328,92.655c20.945,0,5.669-76.294,24.153-76.294
					s3.218,37.567,24.162,37.567c24.159,0-0.911-53.927,22.335-53.927"/>
			</g>
		</g>
		<g>
			<g>
				
					<path fill="none" stroke="#000000" stroke-width="7.8075" stroke-linecap="round" stroke-linejoin="round" stroke-miterlimit="10" d="
					M1116.89,683.026c29.054,0,17.431,52.776,46.485,52.776c29.053,0,17.43-52.776,46.484-52.776
					c29.057,0,17.436,52.776,46.493,52.776s17.436-52.776,46.493-52.776"/>
				
					<polyline fill="none" stroke="#000000" stroke-width="7.983" stroke-linecap="round" stroke-linejoin="round" stroke-miterlimit="10" points="
					1302.845,621.113 1253.173,700.018 1209.86,638.088 1166.56,700.018 1116.89,621.113 				"/>
				
					<path fill="none" stroke="#000000" stroke-width="8.1731" stroke-linecap="round" stroke-linejoin="round" stroke-miterlimit="10" d="
					M1116.89,731.882c23.243,0-1.829,53.927,22.328,53.927c20.945,0,5.669-37.567,24.153-37.567s3.218,76.294,24.162,76.294
					c24.159,0-0.91-92.655,22.335-92.655c23.243,0-1.829,92.655,22.328,92.655c20.945,0,5.669-76.294,24.153-76.294
					s3.218,37.567,24.162,37.567c24.159,0-0.91-53.927,22.335-53.927"/>
			</g>
		</g>
		<g>
			<g>
				
					<path fill="none" stroke="#000000" stroke-width="7.8075" stroke-linecap="round" stroke-linejoin="round" stroke-miterlimit="10" d="
					M930.567,683.026c29.054,0,17.431,52.776,46.486,52.776c29.053,0,17.43-52.776,46.484-52.776
					c29.057,0,17.436,52.776,46.493,52.776c29.057,0,17.436-52.776,46.493-52.776"/>
				
					<polyline fill="none" stroke="#000000" stroke-width="7.983" stroke-linecap="round" stroke-linejoin="round" stroke-miterlimit="10" points="
					1116.522,621.113 1066.85,700.018 1023.538,638.088 980.238,700.018 930.568,621.113 				"/>
				
					<path fill="none" stroke="#000000" stroke-width="8.1731" stroke-linecap="round" stroke-linejoin="round" stroke-miterlimit="10" d="
					M930.567,731.882c23.243,0-1.829,53.927,22.328,53.927c20.945,0,5.669-37.567,24.153-37.567
					c18.484,0,3.218,76.294,24.162,76.294c24.159,0-0.91-92.655,22.336-92.655c23.243,0-1.829,92.655,22.328,92.655
					c20.945,0,5.669-76.294,24.153-76.294c18.484,0,3.218,37.567,24.162,37.567c24.159,0-0.91-53.927,22.335-53.927"/>
			</g>
		</g>
		<g>
			<g>
				<g>
					
						<polyline fill="none" stroke="#000000" stroke-width="5.3052" stroke-linecap="round" stroke-linejoin="round" stroke-miterlimit="10" points="
						1488.829,510.716 1437.545,674.617 1395.852,581.067 1354.158,674.617 1302.874,510.716 					"/>
				</g>
				
					<path fill="none" stroke="#000000" stroke-width="6.9115" stroke-linecap="round" stroke-linejoin="round" stroke-miterlimit="10" d="
					M1488.829,596.545c4.854,0,8.789-3.982,8.789-8.895c0-2.135-0.743-4.094-1.982-5.627l-6.437-7.825l-32.269-39.29v0.002
					l-33.543,45.259l-2.33,3.151c-1.016,1.372-1.418,3.171-1.418,5.009c0,4.745,3.846,8.591,8.591,8.591
					c4.745,0,8.591-3.846,8.591-8.591c0-1.81-0.56-3.49-1.516-4.875l-0.63-0.911l-38.809-47.254l-38.81,47.254l-0.63,0.911
					c-0.956,1.385-1.516,3.064-1.516,4.875c0,4.745,3.846,8.591,8.591,8.591s8.591-3.846,8.591-8.591
					c0-1.838-0.457-3.616-1.472-4.989l-2.328-3.152l-33.521-45.276v-0.002l-32.269,39.29l-6.436,7.825
					c-1.239,1.533-1.982,3.492-1.982,5.627c0,4.912,3.935,8.895,8.789,8.895"/>
			</g>
			<g>
				<g>
					
						<polyline fill="none" stroke="#000000" stroke-width="5.3052" stroke-linecap="round" stroke-linejoin="round" stroke-miterlimit="10" points="
						1302.845,510.716 1251.561,674.617 1209.868,581.067 1168.174,674.617 1116.89,510.716 					"/>
				</g>
				
					<path fill="none" stroke="#000000" stroke-width="6.9115" stroke-linecap="round" stroke-linejoin="round" stroke-miterlimit="10" d="
					M1302.845,596.545c4.854,0,8.789-3.982,8.789-8.895c0-2.135-0.743-4.094-1.982-5.627l-6.437-7.825l-32.269-39.29v0.002
					l-33.543,45.259l-2.33,3.151c-1.017,1.372-1.418,3.171-1.418,5.009c0,4.745,3.846,8.591,8.591,8.591
					c4.745,0,8.591-3.846,8.591-8.591c0-1.81-0.56-3.49-1.516-4.875l-0.63-0.911l-38.809-47.254l-38.81,47.254l-0.63,0.911
					c-0.956,1.385-1.516,3.064-1.516,4.875c0,4.745,3.846,8.591,8.591,8.591c4.745,0,8.591-3.846,8.591-8.591
					c0-1.838-0.457-3.616-1.472-4.989l-2.328-3.152l-33.521-45.276v-0.002l-32.269,39.29l-6.436,7.825
					c-1.239,1.533-1.982,3.492-1.982,5.627c0,4.912,3.935,8.895,8.788,8.895"/>
			</g>
			<g>
				<g>
					
						<polyline fill="none" stroke="#000000" stroke-width="5.3052" stroke-linecap="round" stroke-linejoin="round" stroke-miterlimit="10" points="
						1116.523,510.716 1065.239,674.617 1023.545,581.067 981.852,674.617 930.567,510.716 					"/>
				</g>
				
					<path fill="none" stroke="#000000" stroke-width="6.9115" stroke-linecap="round" stroke-linejoin="round" stroke-miterlimit="10" d="
					M1116.523,596.545c4.854,0,8.789-3.982,8.789-8.895c0-2.135-0.743-4.094-1.982-5.627l-6.436-7.825l-32.269-39.29v0.002
					l-33.544,45.259l-2.33,3.151c-1.016,1.372-1.418,3.171-1.418,5.009c0,4.745,3.846,8.591,8.591,8.591s8.591-3.846,8.591-8.591
					c0-1.81-0.56-3.49-1.516-4.875l-0.63-0.911l-38.809-47.254l-38.81,47.254l-0.63,0.911c-0.956,1.385-1.516,3.064-1.516,4.875
					c0,4.745,3.846,8.591,8.591,8.591s8.591-3.846,8.591-8.591c0-1.838-0.457-3.616-1.472-4.989l-2.328-3.152l-33.521-45.276v-0.002
					l-32.269,39.29l-6.436,7.825c-1.239,1.533-1.982,3.492-1.982,5.627c0,4.912,3.935,8.895,8.789,8.895"/>
			</g>
		</g>
	</g>
</g>
<g>
	<g>
		<g>
			<g>
				
					<path fill="none" stroke="#000000" stroke-width="7.8075" stroke-linecap="round" stroke-linejoin="round" stroke-miterlimit="10" d="
					M744.613,683.026c29.054,0,17.431,52.776,46.486,52.776c29.053,0,17.43-52.776,46.484-52.776
					c29.057,0,17.436,52.776,46.493,52.776s17.436-52.776,46.493-52.776"/>
				
					<polyline fill="none" stroke="#000000" stroke-width="7.983" stroke-linecap="round" stroke-linejoin="round" stroke-miterlimit="10" points="
					930.568,621.113 880.896,700.018 837.583,638.088 794.283,700.018 744.613,621.113 				"/>
				
					<path fill="none" stroke="#000000" stroke-width="8.1731" stroke-linecap="round" stroke-linejoin="round" stroke-miterlimit="10" d="
					M744.613,731.882c23.243,0-1.829,53.927,22.328,53.927c20.945,0,5.669-37.567,24.153-37.567
					c18.484,0,3.218,76.294,24.162,76.294c24.159,0-0.91-92.655,22.335-92.655c23.243,0-1.829,92.655,22.328,92.655
					c20.945,0,5.669-76.294,24.153-76.294c18.484,0,3.219,37.567,24.162,37.567c24.159,0-0.91-53.927,22.336-53.927"/>
			</g>
		</g>
		<g>
			<g>
				
					<path fill="none" stroke="#000000" stroke-width="7.8075" stroke-linecap="round" stroke-linejoin="round" stroke-miterlimit="10" d="
					M558.629,683.026c29.054,0,17.431,52.776,46.486,52.776c29.053,0,17.43-52.776,46.484-52.776
					c29.057,0,17.436,52.776,46.493,52.776s17.436-52.776,46.493-52.776"/>
				
					<polyline fill="none" stroke="#000000" stroke-width="7.983" stroke-linecap="round" stroke-linejoin="round" stroke-miterlimit="10" points="
					744.584,621.113 694.912,700.018 651.599,638.088 608.299,700.018 558.629,621.113 				"/>
				
					<path fill="none" stroke="#000000" stroke-width="8.1731" stroke-linecap="round" stroke-linejoin="round" stroke-miterlimit="10" d="
					M558.629,731.882c23.243,0-1.829,53.927,22.328,53.927c20.945,0,5.669-37.567,24.153-37.567
					c18.484,0,3.218,76.294,24.162,76.294c24.159,0-0.911-92.655,22.335-92.655c23.243,0-1.829,92.655,22.328,92.655
					c20.945,0,5.669-76.294,24.153-76.294c18.484,0,3.219,37.567,24.162,37.567c24.159,0-0.91-53.927,22.335-53.927"/>
			</g>
		</g>
		<g>
			<g>
				
					<path fill="none" stroke="#000000" stroke-width="7.8075" stroke-linecap="round" stroke-linejoin="round" stroke-miterlimit="10" d="
					M372.306,683.026c29.054,0,17.431,52.776,46.485,52.776c29.053,0,17.43-52.776,46.484-52.776
					c29.057,0,17.436,52.776,46.493,52.776c29.057,0,17.436-52.776,46.493-52.776"/>
				
					<polyline fill="none" stroke="#000000" stroke-width="7.983" stroke-linecap="round" stroke-linejoin="round" stroke-miterlimit="10" points="
					558.261,621.113 508.589,700.018 465.277,638.088 421.977,700.018 372.307,621.113 				"/>
				
					<path fill="none" stroke="#000000" stroke-width="8.1731" stroke-linecap="round" stroke-linejoin="round" stroke-miterlimit="10" d="
					M372.306,731.882c23.243,0-1.829,53.927,22.328,53.927c20.945,0,5.669-37.567,24.153-37.567
					c18.484,0,3.218,76.294,24.162,76.294c24.159,0-0.91-92.655,22.335-92.655c23.243,0-1.829,92.655,22.328,92.655
					c20.945,0,5.669-76.294,24.153-76.294s3.218,37.567,24.162,37.567c24.159,0-0.91-53.927,22.336-53.927"/>
			</g>
		</g>
		<g>
			<g>
				<g>
					
						<polyline fill="none" stroke="#000000" stroke-width="5.3052" stroke-linecap="round" stroke-linejoin="round" stroke-miterlimit="10" points="
						930.568,510.716 879.284,674.617 837.591,581.067 795.897,674.617 744.613,510.716 					"/>
				</g>
				
					<path fill="none" stroke="#000000" stroke-width="6.9115" stroke-linecap="round" stroke-linejoin="round" stroke-miterlimit="10" d="
					M930.568,596.545c4.854,0,8.789-3.982,8.789-8.895c0-2.135-0.743-4.094-1.982-5.627l-6.437-7.825l-32.269-39.29v0.002
					l-33.544,45.259l-2.33,3.151c-1.017,1.372-1.418,3.171-1.418,5.009c0,4.745,3.846,8.591,8.591,8.591s8.591-3.846,8.591-8.591
					c0-1.81-0.56-3.49-1.516-4.875l-0.63-0.911l-38.809-47.254l-38.81,47.254l-0.63,0.911c-0.956,1.385-1.516,3.064-1.516,4.875
					c0,4.745,3.846,8.591,8.591,8.591c4.745,0,8.591-3.846,8.591-8.591c0-1.838-0.457-3.616-1.472-4.989l-2.328-3.152
					l-33.521-45.276v-0.002l-32.269,39.29l-6.436,7.825c-1.239,1.533-1.982,3.492-1.982,5.627c0,4.912,3.935,8.895,8.788,8.895"/>
			</g>
			<g>
				<g>
					
						<polyline fill="none" stroke="#000000" stroke-width="5.3052" stroke-linecap="round" stroke-linejoin="round" stroke-miterlimit="10" points="
						744.584,510.716 693.3,674.617 651.607,581.067 609.913,674.617 558.629,510.716 					"/>
				</g>
				
					<path fill="none" stroke="#000000" stroke-width="6.9115" stroke-linecap="round" stroke-linejoin="round" stroke-miterlimit="10" d="
					M744.584,596.545c4.854,0,8.789-3.982,8.789-8.895c0-2.135-0.743-4.094-1.982-5.627l-6.437-7.825l-32.269-39.29v0.002
					l-33.544,45.259l-2.33,3.151c-1.017,1.372-1.418,3.171-1.418,5.009c0,4.745,3.846,8.591,8.591,8.591s8.591-3.846,8.591-8.591
					c0-1.81-0.56-3.49-1.516-4.875l-0.63-0.911l-38.809-47.254l-38.81,47.254l-0.63,0.911c-0.956,1.385-1.516,3.064-1.516,4.875
					c0,4.745,3.846,8.591,8.591,8.591c4.745,0,8.591-3.846,8.591-8.591c0-1.838-0.457-3.616-1.472-4.989l-2.328-3.152
					l-33.521-45.276v-0.002l-32.269,39.29l-6.437,7.825c-1.239,1.533-1.982,3.492-1.982,5.627c0,4.912,3.935,8.895,8.789,8.895"/>
			</g>
			<g>
				<g>
					
						<polyline fill="none" stroke="#000000" stroke-width="5.3052" stroke-linecap="round" stroke-linejoin="round" stroke-miterlimit="10" points="
						558.262,510.716 506.978,674.617 465.284,581.067 423.59,674.617 372.306,510.716 					"/>
				</g>
				
					<path fill="none" stroke="#000000" stroke-width="6.9115" stroke-linecap="round" stroke-linejoin="round" stroke-miterlimit="10" d="
					M558.262,596.545c4.854,0,8.789-3.982,8.789-8.895c0-2.135-0.743-4.094-1.982-5.627l-6.436-7.825l-32.269-39.29v0.002
					l-33.544,45.259l-2.33,3.151c-1.017,1.372-1.418,3.171-1.418,5.009c0,4.745,3.846,8.591,8.591,8.591
					c4.745,0,8.591-3.846,8.591-8.591c0-1.81-0.56-3.49-1.516-4.875l-0.63-0.911l-38.809-47.254l-38.81,47.254l-0.63,0.911
					c-0.956,1.385-1.516,3.064-1.516,4.875c0,4.745,3.846,8.591,8.591,8.591c4.745,0,8.591-3.846,8.591-8.591
					c0-1.838-0.457-3.616-1.473-4.989l-2.328-3.152l-33.521-45.276v-0.002l-32.269,39.29l-6.436,7.825
					c-1.239,1.533-1.982,3.492-1.982,5.627c0,4.912,3.935,8.895,8.788,8.895"/>
			</g>
		</g>
	</g>
</g>
<g>
	<g>
		<g>
			<g>
				
					<path fill="none" stroke="#000000" stroke-width="7.8075" stroke-linecap="round" stroke-linejoin="round" stroke-miterlimit="10" d="
					M186.352,683.026c29.054,0,17.431,52.776,46.486,52.776c29.053,0,17.43-52.776,46.484-52.776
					c29.057,0,17.436,52.776,46.493,52.776c29.057,0,17.436-52.776,46.493-52.776"/>
				
					<polyline fill="none" stroke="#000000" stroke-width="7.983" stroke-linecap="round" stroke-linejoin="round" stroke-miterlimit="10" points="
					372.307,621.113 322.634,700.018 279.322,638.088 236.022,700.018 186.352,621.113 				"/>
				
					<path fill="none" stroke="#000000" stroke-width="8.1731" stroke-linecap="round" stroke-linejoin="round" stroke-miterlimit="10" d="
					M186.352,731.882c23.243,0-1.829,53.927,22.328,53.927c20.945,0,5.669-37.567,24.153-37.567s3.218,76.294,24.162,76.294
					c24.159,0-0.91-92.655,22.336-92.655c23.243,0-1.829,92.655,22.328,92.655c20.945,0,5.669-76.294,24.153-76.294
					c18.484,0,3.218,37.567,24.162,37.567c24.159,0-0.91-53.927,22.335-53.927"/>
			</g>
		</g>
		<g>
			<g>
				
					<path fill="none" stroke="#000000" stroke-width="7.8075" stroke-linecap="round" stroke-linejoin="round" stroke-miterlimit="10" d="
					M0.368,683.026c29.054,0,17.431,52.776,46.486,52.776c29.053,0,17.43-52.776,46.484-52.776
					c29.057,0,17.436,52.776,46.493,52.776s17.436-52.776,46.493-52.776"/>
				
					<polyline fill="none" stroke="#000000" stroke-width="7.983" stroke-linecap="round" stroke-linejoin="round" stroke-miterlimit="10" points="
					186.323,621.113 136.65,700.018 93.338,638.088 50.038,700.018 0.368,621.113 				"/>
				
					<path fill="none" stroke="#000000" stroke-width="8.1731" stroke-linecap="round" stroke-linejoin="round" stroke-miterlimit="10" d="
					M0.368,731.882c23.243,0-1.829,53.927,22.328,53.927c20.945,0,5.669-37.567,24.153-37.567c18.484,0,3.219,76.294,24.162,76.294
					c24.159,0-0.91-92.655,22.335-92.655c23.243,0-1.829,92.655,22.328,92.655c20.945,0,5.669-76.294,24.153-76.294
					s3.218,37.567,24.162,37.567c24.159,0-0.91-53.927,22.335-53.927"/>
			</g>
		</g>
		<g>
			<g>
				
					<path fill="none" stroke="#000000" stroke-width="7.8075" stroke-linecap="round" stroke-linejoin="round" stroke-miterlimit="10" d="
					M-185.955,683.026c29.054,0,17.431,52.776,46.486,52.776c29.053,0,17.43-52.776,46.484-52.776
					c29.057,0,17.436,52.776,46.493,52.776s17.436-52.776,46.493-52.776"/>
				
					<polyline fill="none" stroke="#000000" stroke-width="7.983" stroke-linecap="round" stroke-linejoin="round" stroke-miterlimit="10" points="
					0,621.113 -49.672,700.018 -92.984,638.088 -136.285,700.018 -185.955,621.113 				"/>
				
					<path fill="none" stroke="#000000" stroke-width="8.1731" stroke-linecap="round" stroke-linejoin="round" stroke-miterlimit="10" d="
					M-185.955,731.882c23.243,0-1.829,53.927,22.328,53.927c20.945,0,5.669-37.567,24.153-37.567s3.218,76.294,24.162,76.294
					c24.159,0-0.91-92.655,22.335-92.655c23.243,0-1.829,92.655,22.328,92.655c20.945,0,5.669-76.294,24.153-76.294
					c18.484,0,3.218,37.567,24.162,37.567c24.159,0-0.91-53.927,22.335-53.927"/>
			</g>
		</g>
		<g>
			<g>
				<g>
					
						<polyline fill="none" stroke="#000000" stroke-width="5.3052" stroke-linecap="round" stroke-linejoin="round" stroke-miterlimit="10" points="
						372.307,510.716 321.023,674.617 279.329,581.067 237.636,674.617 186.352,510.716 					"/>
				</g>
				
					<path fill="none" stroke="#000000" stroke-width="6.9115" stroke-linecap="round" stroke-linejoin="round" stroke-miterlimit="10" d="
					M372.307,596.545c4.854,0,8.789-3.982,8.789-8.895c0-2.135-0.743-4.094-1.982-5.627l-6.436-7.825l-32.269-39.29v0.002
					l-33.543,45.259l-2.33,3.151c-1.017,1.372-1.418,3.171-1.418,5.009c0,4.745,3.846,8.591,8.591,8.591s8.591-3.846,8.591-8.591
					c0-1.81-0.56-3.49-1.516-4.875l-0.63-0.911l-38.809-47.254l-38.81,47.254l-0.63,0.911c-0.956,1.385-1.516,3.064-1.516,4.875
					c0,4.745,3.846,8.591,8.591,8.591c4.745,0,8.591-3.846,8.591-8.591c0-1.838-0.457-3.616-1.472-4.989l-2.328-3.152L218.25,534.91
					v-0.002l-32.269,39.29l-6.437,7.825c-1.239,1.533-1.982,3.492-1.982,5.627c0,4.912,3.935,8.895,8.788,8.895"/>
			</g>
			<g>
				<g>
					
						<polyline fill="none" stroke="#000000" stroke-width="5.3052" stroke-linecap="round" stroke-linejoin="round" stroke-miterlimit="10" points="
						186.323,510.716 135.039,674.617 93.345,581.067 51.652,674.617 0.368,510.716 					"/>
				</g>
				
					<path fill="none" stroke="#000000" stroke-width="6.9115" stroke-linecap="round" stroke-linejoin="round" stroke-miterlimit="10" d="
					M186.323,596.545c4.854,0,8.788-3.982,8.788-8.895c0-2.135-0.743-4.094-1.982-5.627l-6.436-7.825l-32.269-39.29v0.002
					l-33.543,45.259l-2.33,3.151c-1.017,1.372-1.418,3.171-1.418,5.009c0,4.745,3.846,8.591,8.591,8.591
					c4.745,0,8.591-3.846,8.591-8.591c0-1.81-0.56-3.49-1.516-4.875l-0.63-0.911L93.361,535.29l-38.81,47.254l-0.63,0.911
					c-0.956,1.385-1.516,3.064-1.516,4.875c0,4.745,3.846,8.591,8.591,8.591s8.591-3.846,8.591-8.591
					c0-1.838-0.457-3.616-1.472-4.989l-2.328-3.152L32.266,534.91v-0.002l-32.269,39.29l-6.437,7.825
					c-1.239,1.533-1.982,3.492-1.982,5.627c0,4.912,3.935,8.895,8.789,8.895"/>
			</g>
			<g>
				<g>
					
						<polyline fill="none" stroke="#000000" stroke-width="5.3052" stroke-linecap="round" stroke-linejoin="round" stroke-miterlimit="10" points="
						0.001,510.716 -51.284,674.617 -92.977,581.067 -134.671,674.617 -185.955,510.716 					"/>
				</g>
				
					<path fill="none" stroke="#000000" stroke-width="6.9115" stroke-linecap="round" stroke-linejoin="round" stroke-miterlimit="10" d="
					M0.001,596.545c4.854,0,8.788-3.982,8.788-8.895c0-2.135-0.743-4.094-1.982-5.627l-6.437-7.825l-32.269-39.29v0.002
					l-33.543,45.259l-2.33,3.151c-1.017,1.372-1.418,3.171-1.418,5.009c0,4.745,3.846,8.591,8.591,8.591s8.591-3.846,8.591-8.591
					c0-1.81-0.56-3.49-1.516-4.875l-0.63-0.911l-38.809-47.254l-38.81,47.254l-0.63,0.911c-0.956,1.385-1.516,3.064-1.516,4.875
					c0,4.745,3.846,8.591,8.591,8.591c4.745,0,8.591-3.846,8.591-8.591c0-1.838-0.457-3.616-1.472-4.989l-2.328-3.152
					l-33.521-45.276v-0.002l-32.269,39.29l-6.437,7.825c-1.239,1.533-1.982,3.492-1.982,5.627c0,4.912,3.935,8.895,8.789,8.895"/>
			</g>
		</g>
	</g>
</g>
</svg>
