<?xml version="1.0" encoding="utf-8"?>
<!-- Generator: Adobe Illustrator 17.0.0, SVG Export Plug-In . SVG Version: 6.00 Build 0)  -->
<!DOCTYPE svg PUBLIC "-//W3C//DTD SVG 1.1//EN" "http://www.w3.org/Graphics/SVG/1.1/DTD/svg11.dtd">
<svg version="1.1" xmlns="http://www.w3.org/2000/svg" xmlns:xlink="http://www.w3.org/1999/xlink" x="0px" y="0px" width="30px"
	 height="30px" viewBox="0 0 30 30" enable-background="new 0 0 30 30" xml:space="preserve">
<g id="Layer_1_copy">
	<g>
		<circle stroke="#000000" stroke-miterlimit="10" cx="14.991" cy="9.243" r="3.477"/>
		<path stroke="#000000" stroke-miterlimit="10" d="M9.576,24.233h10.829c1.824-1.539,2.964-3.819,2.964-6.441
			c0-3.363-1.938-4.446-4.788-4.845l-3.591,5.586l-3.648-5.529c-2.793,0.342-4.788,1.482-4.788,4.845
			C6.613,20.415,7.753,22.694,9.576,24.233z"/>
	</g>
	<g>
		<circle stroke="#000000" stroke-miterlimit="10" cx="21.609" cy="9.006" r="2.739"/>
		<path stroke="#000000" stroke-miterlimit="10" d="M24.438,11.925l-2.829,4.401l-2.874-4.356c-2.201,0.269-3.772,1.168-3.772,3.817
			c0.045,2.021,0.943,3.817,2.38,5.03h8.532c1.437-1.212,2.335-3.009,2.335-5.075C28.21,13.093,26.683,12.239,24.438,11.925z"/>
	</g>
	<g>
		<circle stroke="#000000" stroke-miterlimit="10" cx="8.361" cy="9.006" r="2.739"/>
		<path stroke="#000000" stroke-miterlimit="10" d="M4.095,20.817h8.532c1.437-1.213,2.335-3.009,2.335-5.075
			c0-2.65-1.527-3.503-3.772-3.817l-2.829,4.401L5.487,11.97c-2.2,0.269-3.772,1.168-3.772,3.817
			C1.76,17.808,2.658,19.604,4.095,20.817z"/>
	</g>
</g>
<g id="Layer_1">
	<g>
		<circle stroke="#000000" stroke-miterlimit="10" cx="8.361" cy="9.006" r="2.739"/>
		<path stroke="#000000" stroke-miterlimit="10" d="M4.095,20.817h8.532c1.437-1.213,2.335-3.009,2.335-5.075
			c0-2.65-1.527-3.503-3.772-3.817l-2.829,4.401L5.487,11.97c-2.2,0.269-3.772,1.168-3.772,3.817
			C1.76,17.808,2.658,19.604,4.095,20.817z"/>
	</g>
	<g>
		<circle stroke="#000000" stroke-miterlimit="10" cx="21.609" cy="9.006" r="2.739"/>
		<path stroke="#000000" stroke-miterlimit="10" d="M24.438,11.925l-2.829,4.401l-2.874-4.356c-2.201,0.269-3.772,1.168-3.772,3.817
			c0.045,2.021,0.943,3.817,2.38,5.03h8.532c1.437-1.212,2.335-3.009,2.335-5.075C28.21,13.093,26.683,12.239,24.438,11.925z"/>
	</g>
	<polygon fill="#FFFFFF" points="15,20.817 10.021,12.063 10.896,11.188 19,11.188 19.938,12.083 	"/>
	<circle fill="#FFFFFF" stroke="#FFFAFA" stroke-miterlimit="10" cx="14.991" cy="9.243" r="3.763"/>
	<circle stroke="#000000" stroke-miterlimit="10" cx="14.991" cy="9.243" r="3.477"/>
	<path fill="#FFFFFF" stroke="#FFFAFA" stroke-miterlimit="10" d="M9.042,24.793h11.903c2.005-1.691,3.258-4.197,3.258-7.079
		c0-3.696-2.13-4.886-5.262-5.325l-3.947,6.139l-4.009-6.077c-3.07,0.376-5.262,1.629-5.262,5.325
		C5.785,20.595,7.038,23.101,9.042,24.793z"/>
	<path stroke="#000000" stroke-miterlimit="10" d="M9.576,24.233h10.829c1.824-1.539,2.964-3.819,2.964-6.441
		c0-3.363-1.938-4.446-4.788-4.845l-3.591,5.586l-3.648-5.529c-2.793,0.342-4.788,1.482-4.788,4.845
		C6.613,20.415,7.753,22.694,9.576,24.233z"/>
</g>
</svg>
