<?xml version="1.0" encoding="utf-8"?>
<!-- Generator: Adobe Illustrator 17.0.0, SVG Export Plug-In . SVG Version: 6.00 Build 0)  -->
<!DOCTYPE svg PUBLIC "-//W3C//DTD SVG 1.1//EN" "http://www.w3.org/Graphics/SVG/1.1/DTD/svg11.dtd">
<svg version="1.1" id="Layer_1" xmlns="http://www.w3.org/2000/svg" xmlns:xlink="http://www.w3.org/1999/xlink" x="0px" y="0px"
	 width="500px" height="250px" viewBox="0 0 500 250" enable-background="new 0 0 500 250" xml:space="preserve">
<g>
	<g>
		<path fill="#000319" d="M217.093,107.705L217.093,107.705l5.507-23.139h5.746l-7.805,31.417h-6.761l-5.363-21.307l-5.411,21.307
			h-6.732l-7.806-31.417h5.986l5.576,23.089l5.842-23.089h5.33L217.093,107.705z"/>
		<path fill="#000319" d="M254.703,108.503c0.335,2.643,2.251,3.99,5.172,3.99c2.107,0,3.83-0.748,3.83-2.344
			c0-1.496-0.957-2.144-3.065-2.493l-3.352-0.598c-4.501-0.748-6.991-2.493-6.991-6.583c0-4.189,3.4-7.081,8.763-7.081
			c5.842,0,9.338,2.743,9.721,7.63l-4.74,0.2c-0.383-2.493-2.011-3.74-5.029-3.74c-2.059,0-3.4,0.947-3.4,2.444
			c0,1.197,0.766,1.895,2.299,2.144l4.022,0.698c4.454,0.748,7.087,2.693,7.087,6.832c0,4.488-3.735,6.982-9.194,6.982
			c-5.507,0-9.721-2.493-10.104-7.879L254.703,108.503z"/>
		<path fill="#000319" d="M377.476,84.566v31.417h-5.747V84.566H377.476z"/>
		<g>
			<path fill="#000319" d="M368.453,112.343c-0.91,0-1.485-0.549-1.485-1.696v-8.777c0-5.785-3.591-8.478-9.051-8.478
				c-5.603,0-8.906,3.142-9.625,7.63l5.219,0.499c0.479-2.144,1.772-3.64,4.166-3.64c2.442,0,3.687,1.496,3.687,3.94v0.683
				l-5.794,1.012c-4.788,0.997-8.044,2.743-8.044,6.932c0,3.79,2.682,6.084,7.087,6.084c3.112,0,6.522-1.608,7.183-3.119
				c0.403,1.634,2.059,3.069,4.453,3.069c1.227,0,2.138-0.181,2.875-0.507v-3.707C368.899,112.313,368.676,112.343,368.453,112.343z
				 M361.365,106.458c0,3.541-2.298,5.934-5.315,5.934c-1.82,0-2.921-0.898-2.921-2.394c0-2.194,1.772-2.643,4.262-3.191
				l3.975-0.732V106.458z"/>
		</g>
		<g>
			<path fill="#000319" d="M281.227,111.794c-1.724,0-2.538-0.848-2.538-2.743V98.18h4.589v-4.189h-4.589v-6.084h-3.987
				c0,0-0.061,1.919-0.356,2.992c-0.296,1.074-0.876,3.142-2.936,3.491l-1.436,0.249v3.541h3.017v12.218
				c0,4.688,2.73,6.184,5.986,6.184c1.767,0,3.126-0.332,4.302-0.92v-4.273C282.579,111.632,281.893,111.794,281.227,111.794z"/>
		</g>
		<g>
			<path fill="#000319" d="M320.366,93.526c-2.921,0-5.062,2.025-5.89,3.984v-3.519h-5.747v21.992h5.747v-10.871
				c0-3.99,2.01-6.184,4.98-6.184c0.94,0,1.681,0.15,2.405,0.44l1.206-5.128C322.431,93.804,321.5,93.526,320.366,93.526z"/>
		</g>
		<g>
			<path fill="#000319" d="M237.636,112.043c-3.113,0-5.555-2.294-5.746-5.535h15.85v-2.144c0-5.984-3.543-10.971-10.439-10.971
				c-6.321,0-11.062,4.987-11.062,11.918c0,6.932,4.693,11.27,11.206,11.27c5.111,0,8.638-2.583,9.943-6.987l-4.585-0.913
				C241.943,110.913,240.308,112.043,237.636,112.043z M237.252,97.781c3.208,0,4.693,2.444,4.885,4.987h-10.152
				C232.512,100.025,234.092,97.781,237.252,97.781z"/>
		</g>
		<g>
			<path fill="#000319" d="M295.831,112.043c-3.113,0-5.555-2.294-5.746-5.535h15.85v-2.144c0-5.984-3.543-10.971-10.439-10.971
				c-6.321,0-11.062,4.987-11.062,11.918c0,6.932,4.693,11.27,11.206,11.27c5.111,0,8.638-2.583,9.943-6.987l-4.585-0.913
				C300.138,110.913,298.504,112.043,295.831,112.043z M295.448,97.781c3.208,0,4.693,2.444,4.884,4.987H290.18
				C290.707,100.025,292.287,97.781,295.448,97.781z"/>
		</g>
		<path fill="#000319" d="M385.301,108.503c0.335,2.643,2.251,3.99,5.172,3.99c2.107,0,3.83-0.748,3.83-2.344
			c0-1.496-0.957-2.144-3.065-2.493l-3.352-0.598c-4.501-0.748-6.991-2.493-6.991-6.583c0-4.189,3.4-7.081,8.763-7.081
			c5.842,0,9.338,2.743,9.721,7.63l-4.74,0.2c-0.383-2.493-2.011-3.74-5.029-3.74c-2.059,0-3.4,0.947-3.4,2.444
			c0,1.197,0.766,1.895,2.299,2.144l4.022,0.698c4.454,0.748,7.087,2.693,7.087,6.832c0,4.488-3.735,6.982-9.194,6.982
			c-5.507,0-9.721-2.493-10.104-7.879L385.301,108.503z"/>
		<path fill="#000319" d="M344.822,84.567h-4.934h-0.58v11.688c-1.583-1.778-3.809-2.855-6.671-2.855h-0.034
			c-6.277,0-9.536,5.14-9.536,11.628c0,6.486,3.257,11.575,9.532,11.578c2.852-0.001,5.092-1.002,6.709-2.675v2.076h5.75v-31.44
			H344.822z M334.322,111.92l0.007-0.006c-3.594,0-5.463-2.744-5.463-6.887c0-4.192,1.869-6.937,5.463-6.937l-0.007,0.006
			c3.259,0,5.607,2.495,5.607,6.488v0.848C339.929,109.475,337.58,111.92,334.322,111.92z"/>
	</g>
	<g>
		<polygon fill="#000319" points="164.096,165.25 164.096,158.815 161.475,158.815 161.475,157.116 168.646,157.116 
			168.646,158.815 165.991,158.815 165.991,165.25 		"/>
		<g>
			<path fill="#000319" d="M139.361,163.625c-1.199,0-1.973-0.958-1.973-2.442c0-1.484,0.774-2.442,1.973-2.442
				c0.754,0,1.319,0.339,1.646,0.995l1.765-0.604c-0.553-1.38-1.755-2.163-3.41-2.163c-2.275,0-3.926,1.772-3.926,4.214
				s1.651,4.214,3.926,4.214c1.615,0,2.799-0.742,3.369-2.057l-1.761-0.624C140.65,163.304,140.096,163.625,139.361,163.625z"/>
		</g>
		<path fill="#000319" d="M158.29,139.521c-7.087,0-9.171-6.267-11.008-11.796c-1.983-5.964-3.506-9.585-7.944-9.585
			c-4.437,0-5.96,3.621-7.941,9.585c-1.837,5.529-3.92,11.796-11.007,11.796c-7.087,0-9.17-6.267-11.007-11.796
			c-1.981-5.964-3.505-9.585-7.941-9.585c-0.892,0-1.615-0.723-1.615-1.615c0-0.892,0.723-1.615,1.615-1.615
			c7.087,0,9.17,6.267,11.007,11.796c1.981,5.964,3.505,9.585,7.941,9.585c4.437,0,5.96-3.621,7.941-9.585
			c1.837-5.529,3.92-11.796,11.007-11.796c7.088,0,9.171,6.267,11.009,11.796c1.983,5.964,3.506,9.585,7.943,9.585
			c4.437,0,5.961-3.621,7.944-9.585c1.838-5.529,3.921-11.796,11.009-11.796c0.892,0,1.615,0.723,1.615,1.615
			c0,0.892-0.723,1.615-1.615,1.615c-4.437,0-5.961,3.621-7.944,9.585C167.46,133.254,165.378,139.521,158.29,139.521z"/>
		<path fill="#000319" d="M152.371,147.933c-1.074,0.208-1.895,0.076-2.535-0.344c-1.962-1.29-2.313-4.941-2.876-8.543l0.003-0.002
			c-0.816-5.218-1.831-11.712-7.618-11.712c-0.003,0-0.006,0-0.007,0c-5.787,0-6.804,6.494-7.619,11.711
			c-0.563,3.603-0.915,7.253-2.876,8.543c-0.64,0.421-1.461,0.552-2.535,0.344c-3.573-0.73-3.995-5.681-4.231-13.151
			c-0.244-7.666-0.519-16.354-8.54-16.354c-0.892,0-1.615,0.723-1.615,1.615s0.723,1.615,1.615,1.615
			c4.562,0,5.05,4.997,5.311,13.226c0.222,6.992,0.473,14.917,6.831,16.217c0.557,0.108,1.093,0.162,1.604,0.162
			c1.295,0,2.44-0.345,3.417-1.031c2.853-2.004,3.544-6.418,4.212-10.688c0.874-5.587,1.608-8.98,4.429-8.98
			c0.002,0,0.002,0,0.003,0c2.82,0,3.554,3.393,4.428,8.98c0.668,4.269,1.358,8.684,4.211,10.687
			c1.364,0.958,3.054,1.25,5.038,0.866c6.341-1.296,6.592-9.221,6.813-16.214c0.261-8.229,0.749-13.225,5.311-13.225
			c0.892,0,1.615-0.723,1.615-1.615s-0.723-1.615-1.615-1.615c-8.021,0-8.297,8.688-8.54,16.353
			c-0.237,7.47-0.66,12.421-4.215,13.148L152.371,147.933z"/>
		<path fill="#000319" d="M166.796,140.005c-0.749-0.484-1.749-0.271-2.234,0.479l-12.221,18.887l-11.63-14.074l-0.767-0.926
			c-0.143-0.173-0.36-0.284-0.603-0.284c-0.243,0-0.461,0.111-0.604,0.286l-0.544,0.656l-11.852,14.342l-12.221-18.888
			c-0.485-0.749-1.484-0.963-2.234-0.479c-0.749,0.485-0.963,1.485-0.478,2.233l12.775,19.744l-2.265,2.741l-0.345,0.484
			c-0.6,0.861-0.92,1.881-0.926,2.95c-0.008,1.38,0.526,2.682,1.504,3.665c0.991,0.996,2.311,1.545,3.719,1.545v-0.001
			c2.856-0.013,5.175-2.34,5.175-5.199c0-1.002-0.286-1.976-0.831-2.821l-2.034-3.13l11.16-13.504l11.159,13.504l-2.037,3.137
			c-0.541,0.84-0.827,1.813-0.827,2.816c0,2.859,2.32,5.187,5.175,5.199v0.001c1.408,0,2.728-0.549,3.719-1.545
			c0.978-0.984,1.512-2.285,1.504-3.665c-0.006-1.07-0.326-2.091-0.925-2.948l-2.611-3.229l12.775-19.743
			C167.759,141.489,167.545,140.489,166.796,140.005z M125.847,170.135v0.001c-0.533-0.006-1.031-0.216-1.404-0.592
			c-0.367-0.369-0.568-0.855-0.565-1.37c0.002-0.411,0.122-0.798,0.346-1.12l0.227-0.326l1.573-1.903l1.48,2.275
			c0.204,0.317,0.312,0.685,0.312,1.066C127.816,169.252,126.933,170.135,125.847,170.135z M154.805,168.176
			c0.003,0.514-0.198,1-0.565,1.369c-0.374,0.376-0.871,0.586-1.404,0.592v-0.001c-1.085,0-1.969-0.883-1.969-1.969
			c0-0.38,0.108-0.749,0.309-1.06l1.483-2.281l1.573,1.903l0.228,0.328C154.683,167.377,154.802,167.764,154.805,168.176z"/>
		<path fill="#000319" d="M140.449,100.033l13.487,19.165l15.526-24.512c0.477-0.753,1.474-0.978,2.228-0.5
			c0.754,0.477,0.978,1.475,0.5,2.229L155.224,123.2l-0.52,0.825c-0.139,0.218-0.383,0.363-0.66,0.363
			c-0.262,0-0.494-0.129-0.636-0.327l-0.569-0.808l-13.5-19.184l-13.788,19.6l-0.272,0.394c-0.142,0.198-0.374,0.327-0.636,0.327
			c-0.278,0-0.522-0.145-0.66-0.363l-0.268-0.422l-17.222-27.19c-0.477-0.754-0.253-1.752,0.5-2.229
			c0.756-0.478,1.752-0.253,2.228,0.5l15.526,24.512l13.434-19.096l0.512-0.726c0.141-0.208,0.378-0.345,0.648-0.345
			c0.267,0,0.503,0.134,0.644,0.338L140.449,100.033z"/>
		<path fill="#000319" d="M140.245,76.455l13.396,29.867l6.701-21.082c0.27-0.851,1.179-1.319,2.029-1.05
			c0.85,0.27,1.32,1.178,1.049,2.029l-8.555,26.915l-0.089,0.281c-0.1,0.317-0.396,0.546-0.745,0.546
			c-0.312,0-0.581-0.182-0.706-0.446l-0.14-0.314l-13.871-30.926l-13.727,30.611l-0.285,0.641c-0.126,0.264-0.395,0.446-0.706,0.446
			c-0.35,0-0.646-0.23-0.745-0.546l-0.167-0.539l-8.424-26.708c-0.268-0.851,0.204-1.758,1.055-2.026
			c0.848-0.268,1.758,0.204,2.026,1.055l6.655,21.102l13.403-29.888l0.196-0.434c0.12-0.276,0.396-0.47,0.717-0.47
			c0.324,0,0.601,0.197,0.72,0.477L140.245,76.455z"/>
		<path fill="#000319" d="M113.795,157.108h-1.799l-3.154,8.143h1.934l0.544-1.446h3.15l0.544,1.446h1.934L113.795,157.108z
			 M111.921,162.207l0.974-2.589l0.974,2.589H111.921z"/>
	</g>
	<g>
		<g>
			<path fill="#000319" d="M194.906,145.792c-3.007,0-5.115-2.174-5.115-5.345c0-3.17,2.108-5.344,5.115-5.344
				c2.99,0,5.115,2.174,5.115,5.344C200.021,143.618,197.896,145.792,194.906,145.792z M194.906,136.314
				c-2.223,0-3.661,1.617-3.661,4.134c0,2.518,1.438,4.135,3.661,4.135c2.222,0,3.644-1.617,3.644-4.135
				C198.55,137.931,197.128,136.314,194.906,136.314z"/>
			<path fill="#000319" d="M202.115,143.111c0.13,1.095,0.898,1.684,2.124,1.684c0.948,0,1.651-0.344,1.651-1.063
				c0-0.67-0.474-0.898-1.357-1.063l-1.209-0.212c-1.34-0.213-2.141-0.785-2.141-2.011c0-1.307,1.095-2.189,2.746-2.189
				c1.896,0,3.007,0.883,3.138,2.533l-1.095,0.065c-0.163-1.095-0.833-1.602-2.042-1.602c-0.899,0-1.487,0.408-1.487,1.063
				c0,0.571,0.359,0.865,1.095,0.996l1.34,0.213c1.438,0.245,2.288,0.784,2.288,2.075c0,1.422-1.258,2.19-2.925,2.19
				c-1.781,0-3.138-0.834-3.268-2.599L202.115,143.111z"/>
			<path fill="#000319" d="M209.928,135.3v10.296h-1.357V135.3H209.928z"/>
			<path fill="#000319" d="M214.946,145.792c-2.092,0-3.628-1.536-3.628-3.759c0-2.223,1.536-3.775,3.628-3.775
				c2.108,0,3.661,1.553,3.661,3.775C218.607,144.256,217.054,145.792,214.946,145.792z M214.946,144.746
				c1.454,0,2.271-1.128,2.271-2.713c0-1.602-0.817-2.713-2.271-2.713c-1.438,0-2.239,1.111-2.239,2.713
				C212.707,143.618,213.508,144.746,214.946,144.746z"/>
			<path fill="#000319" d="M223.658,141.837c0.081,1.879,1.372,2.844,3.105,2.844c1.536,0,2.5-0.654,2.5-1.781
				c0-0.948-0.621-1.406-1.961-1.667l-2.042-0.393c-1.52-0.294-2.566-1.111-2.566-2.713c0-1.798,1.422-3.023,3.677-3.023
				c2.582,0,4.069,1.373,4.085,3.693l-1.291,0.066c-0.049-1.699-1.079-2.664-2.778-2.664c-1.487,0-2.32,0.703-2.32,1.847
				c0,1.014,0.67,1.341,1.863,1.569l1.863,0.359c1.879,0.359,2.828,1.177,2.828,2.827c0,1.895-1.634,2.991-3.857,2.991
				c-2.533,0-4.38-1.39-4.38-3.873L223.658,141.837z"/>
			<path fill="#000319" d="M235.394,138.258c2.092,0,3.219,1.405,3.366,3.121l-1.193,0.082c-0.114-1.259-0.866-2.108-2.19-2.108
				c-1.34,0-2.255,1.029-2.255,2.681c0,1.65,0.916,2.68,2.255,2.68c1.324,0,2.076-0.898,2.19-2.157l1.193,0.114
				c-0.147,1.732-1.274,3.122-3.366,3.122c-2.157,0-3.661-1.487-3.661-3.759C231.734,139.762,233.237,138.258,235.394,138.258z"/>
			<path fill="#000319" d="M241.508,145.596h-1.356V135.3h1.356v4.429c0.343-0.866,1.307-1.471,2.37-1.471
				c1.863,0,2.615,1.242,2.615,2.909v4.429h-1.356v-4.314c0-1.193-0.572-1.945-1.7-1.945c-1.079,0-1.928,0.851-1.928,2.157V145.596z
				"/>
			<path fill="#000319" d="M251.429,145.792c-2.092,0-3.628-1.536-3.628-3.759c0-2.223,1.536-3.775,3.628-3.775
				c2.108,0,3.66,1.553,3.66,3.775C255.089,144.256,253.537,145.792,251.429,145.792z M251.429,144.746
				c1.454,0,2.271-1.128,2.271-2.713c0-1.602-0.817-2.713-2.271-2.713c-1.438,0-2.239,1.111-2.239,2.713
				C249.19,143.618,249.991,144.746,251.429,144.746z"/>
			<path fill="#000319" d="M259.716,145.792c-2.092,0-3.628-1.536-3.628-3.759c0-2.223,1.536-3.775,3.628-3.775
				c2.107,0,3.66,1.553,3.66,3.775C263.377,144.256,261.824,145.792,259.716,145.792z M259.716,144.746
				c1.454,0,2.271-1.128,2.271-2.713c0-1.602-0.817-2.713-2.271-2.713c-1.439,0-2.239,1.111-2.239,2.713
				C257.477,143.618,258.278,144.746,259.716,144.746z"/>
			<path fill="#000319" d="M266.14,135.3v10.296h-1.356V135.3H266.14z"/>
			<path fill="#000319" d="M274.1,145.792c-2.092,0-3.628-1.536-3.628-3.759c0-2.223,1.536-3.775,3.628-3.775
				c2.108,0,3.661,1.553,3.661,3.775C277.761,144.256,276.209,145.792,274.1,145.792z M274.1,144.746
				c1.455,0,2.271-1.128,2.271-2.713c0-1.602-0.816-2.713-2.271-2.713c-1.438,0-2.238,1.111-2.238,2.713
				C271.862,143.618,272.663,144.746,274.1,144.746z"/>
			<path fill="#000319" d="M278.351,139.435v-0.98h1.095v-0.834c0-1.52,0.866-2.517,2.37-2.517c1.226,0,1.912,0.556,2.238,1.635
				l-0.931,0.326c-0.181-0.556-0.589-0.98-1.242-0.98c-0.752,0-1.095,0.54-1.095,1.39v0.98h2.01v0.98h-2.01v6.161h-1.341v-6.161
				H278.351z"/>
			<path fill="#000319" d="M291.786,135.3l4.282,10.296h-1.504l-1.242-3.023h-4.689l-1.21,3.023h-1.389l4.2-10.296H291.786z
				 M289.073,141.444h3.792l-1.88-4.575h-0.065L289.073,141.444z"/>
			<path fill="#000319" d="M301.464,139.811c-0.393-0.213-0.671-0.294-1.111-0.294c-1.03,0-1.798,0.931-1.798,2.304v3.775h-1.357
				v-7.142h1.357v1.454c0.262-0.817,0.997-1.65,2.026-1.65c0.441,0,0.768,0.114,1.013,0.327L301.464,139.811z"/>
			<path fill="#000319" d="M303.049,139.435h-1.079v-0.735l0.458-0.082c0.67-0.131,0.817-0.457,0.98-1.143l0.213-0.997h0.768v1.978
				h2.01v0.98h-2.01v4.33c0,0.638,0.262,0.932,0.883,0.932c0.457,0,0.932-0.195,1.34-0.425v0.915
				c-0.523,0.393-1.046,0.605-1.83,0.605c-1.014,0-1.732-0.475-1.732-1.863V139.435z"/>
			<path fill="#000319" d="M308.427,143.111c0.131,1.095,0.898,1.684,2.124,1.684c0.948,0,1.65-0.344,1.65-1.063
				c0-0.67-0.474-0.898-1.356-1.063l-1.209-0.212c-1.34-0.213-2.141-0.785-2.141-2.011c0-1.307,1.095-2.189,2.745-2.189
				c1.895,0,3.007,0.883,3.138,2.533l-1.095,0.065c-0.163-1.095-0.833-1.602-2.043-1.602c-0.898,0-1.487,0.408-1.487,1.063
				c0,0.571,0.36,0.865,1.096,0.996l1.34,0.213c1.438,0.245,2.288,0.784,2.288,2.075c0,1.422-1.259,2.19-2.926,2.19
				c-1.781,0-3.138-0.834-3.268-2.599L308.427,143.111z"/>
			<path fill="#000319" d="M314.607,143.961h1.634v1.602c0,1.145-0.326,1.814-1.634,1.831v-0.801
				c0.605-0.05,0.768-0.278,0.768-0.997h-0.768V143.961z"/>
		</g>
		<g>
			<path fill="#000319" d="M194.84,154.719c2.941,0,4.608,1.813,4.805,4.461l-1.373,0.066c-0.114-1.896-1.307-3.317-3.432-3.317
				c-2.092,0-3.595,1.602-3.595,4.135s1.503,4.135,3.595,4.135c2.124,0,3.317-1.422,3.432-3.317l1.373,0.065
				c-0.196,2.647-1.863,4.461-4.805,4.461c-2.844,0-5.05-2.174-5.05-5.344C189.791,156.892,191.997,154.719,194.84,154.719z"/>
			<path fill="#000319" d="M204.272,165.406c-2.092,0-3.628-1.536-3.628-3.759c0-2.223,1.536-3.774,3.628-3.774
				c2.108,0,3.661,1.552,3.661,3.774C207.933,163.87,206.38,165.406,204.272,165.406z M204.272,164.36
				c1.454,0,2.271-1.128,2.271-2.713c0-1.602-0.817-2.713-2.271-2.713c-1.438,0-2.239,1.111-2.239,2.713
				C202.033,163.233,202.834,164.36,204.272,164.36z"/>
			<path fill="#000319" d="M217.707,157.873c1.863,0,2.517,1.291,2.517,2.908v4.429h-1.357v-4.314c0-1.192-0.49-1.944-1.585-1.944
				c-1.014,0-1.831,0.85-1.831,2.157v4.102h-1.356v-4.314c0-1.192-0.49-1.944-1.585-1.944c-1.013,0-1.814,0.85-1.814,2.157v4.102
				h-1.356v-7.142h1.356v1.275c0.343-0.866,1.176-1.471,2.271-1.471c1.274,0,2.026,0.62,2.337,1.552
				C215.681,158.543,216.563,157.873,217.707,157.873z"/>
			<path fill="#000319" d="M230.375,157.873c1.863,0,2.517,1.291,2.517,2.908v4.429h-1.357v-4.314c0-1.192-0.49-1.944-1.585-1.944
				c-1.014,0-1.831,0.85-1.831,2.157v4.102h-1.356v-4.314c0-1.192-0.49-1.944-1.585-1.944c-1.013,0-1.814,0.85-1.814,2.157v4.102
				h-1.356v-7.142h1.356v1.275c0.343-0.866,1.176-1.471,2.271-1.471c1.274,0,2.026,0.62,2.337,1.552
				C228.349,158.543,229.231,157.873,230.375,157.873z"/>
			<path fill="#000319" d="M239.481,158.068h1.356v7.142h-1.356v-1.258c-0.343,0.85-1.259,1.454-2.337,1.454
				c-1.863,0-2.55-1.226-2.55-2.893v-4.445h1.356v4.314c0,1.193,0.523,1.961,1.651,1.961c1.062,0,1.879-0.85,1.879-2.173V158.068z"
				/>
			<path fill="#000319" d="M244.058,165.21h-1.357v-7.142h1.357v1.275c0.343-0.866,1.307-1.471,2.37-1.471
				c1.863,0,2.615,1.241,2.615,2.908v4.429h-1.356v-4.314c0-1.192-0.572-1.944-1.7-1.944c-1.079,0-1.928,0.85-1.928,2.157V165.21z"
				/>
			<path fill="#000319" d="M250.777,154.915h1.405v1.536h-1.405V154.915z M252.166,158.068v7.142h-1.356v-7.142H252.166z"/>
			<path fill="#000319" d="M257.216,157.873c2.092,0,3.219,1.405,3.366,3.121l-1.193,0.081c-0.114-1.258-0.866-2.107-2.19-2.107
				c-1.34,0-2.255,1.029-2.255,2.68s0.915,2.681,2.255,2.681c1.324,0,2.076-0.899,2.19-2.157l1.193,0.114
				c-0.147,1.732-1.274,3.121-3.366,3.121c-2.157,0-3.661-1.487-3.661-3.759S255.059,157.873,257.216,157.873z"/>
			<path fill="#000319" d="M267.726,163.805c0,0.376,0.212,0.556,0.556,0.556c0.163,0,0.425-0.049,0.621-0.163v0.735
				c-0.245,0.245-0.539,0.425-1.095,0.425c-0.735,0-1.258-0.556-1.34-1.405c-0.393,0.833-1.406,1.454-2.566,1.454
				c-1.389,0-2.288-0.752-2.288-1.978c0-1.356,1.161-1.912,2.876-2.255l1.928-0.393v-0.277c0-0.98-0.572-1.585-1.569-1.585
				c-1.029,0-1.585,0.605-1.797,1.438l-1.21-0.163c0.278-1.34,1.34-2.32,3.023-2.32c1.797,0,2.86,0.915,2.86,2.729V163.805z
				 M266.418,161.681l-1.602,0.343c-1.128,0.245-1.847,0.458-1.847,1.324c0,0.605,0.409,1.062,1.226,1.062
				c1.259,0,2.223-0.947,2.223-2.386V161.681z"/>
			<path fill="#000319" d="M270.13,159.049h-1.079v-0.735l0.458-0.081c0.67-0.131,0.817-0.458,0.98-1.145l0.212-0.997h0.768v1.977
				h2.01v0.98h-2.01v4.331c0,0.638,0.262,0.932,0.883,0.932c0.458,0,0.931-0.196,1.34-0.425v0.915
				c-0.523,0.393-1.046,0.605-1.831,0.605c-1.013,0-1.732-0.474-1.732-1.863V159.049z"/>
			<path fill="#000319" d="M274.854,154.915h1.405v1.536h-1.405V154.915z M276.243,158.068v7.142h-1.356v-7.142H276.243z"/>
			<path fill="#000319" d="M281.261,165.406c-2.092,0-3.628-1.536-3.628-3.759c0-2.223,1.536-3.774,3.628-3.774
				c2.108,0,3.661,1.552,3.661,3.774C284.922,163.87,283.369,165.406,281.261,165.406z M281.261,164.36
				c1.454,0,2.272-1.128,2.272-2.713c0-1.602-0.817-2.713-2.272-2.713c-1.439,0-2.239,1.111-2.239,2.713
				C279.022,163.233,279.822,164.36,281.261,164.36z"/>
			<path fill="#000319" d="M287.685,165.21h-1.356v-7.142h1.356v1.275c0.343-0.866,1.307-1.471,2.37-1.471
				c1.863,0,2.615,1.241,2.615,2.908v4.429h-1.356v-4.314c0-1.192-0.572-1.944-1.7-1.944c-1.079,0-1.928,0.85-1.928,2.157V165.21z"
				/>
			<path fill="#000319" d="M303.13,163.805c0,0.376,0.213,0.556,0.556,0.556c0.163,0,0.425-0.049,0.621-0.163v0.735
				c-0.245,0.245-0.539,0.425-1.095,0.425c-0.735,0-1.259-0.556-1.34-1.405c-0.393,0.833-1.406,1.454-2.566,1.454
				c-1.389,0-2.288-0.752-2.288-1.978c0-1.356,1.161-1.912,2.877-2.255l1.928-0.393v-0.277c0-0.98-0.571-1.585-1.568-1.585
				c-1.029,0-1.585,0.605-1.798,1.438l-1.209-0.163c0.277-1.34,1.34-2.32,3.023-2.32c1.797,0,2.859,0.915,2.859,2.729V163.805z
				 M301.822,161.681l-1.602,0.343c-1.127,0.245-1.847,0.458-1.847,1.324c0,0.605,0.409,1.062,1.226,1.062
				c1.259,0,2.223-0.947,2.223-2.386V161.681z"/>
			<path fill="#000319" d="M306.728,165.21h-1.356v-7.142h1.356v1.275c0.343-0.866,1.308-1.471,2.369-1.471
				c1.863,0,2.615,1.241,2.615,2.908v4.429h-1.357v-4.314c0-1.192-0.572-1.944-1.7-1.944c-1.078,0-1.928,0.85-1.928,2.157V165.21z"
				/>
			<path fill="#000319" d="M318.855,163.723c-0.326,0.883-1.225,1.684-2.565,1.684c-2.124,0-3.269-1.65-3.269-3.759
				s1.145-3.774,3.269-3.774c1.34,0,2.239,0.816,2.565,1.699v-4.657h1.357v10.295h-1.357V163.723z M318.871,161.436
				c0-1.553-0.98-2.468-2.271-2.468c-1.405,0-2.189,1.046-2.189,2.68c0,1.635,0.784,2.681,2.189,2.681
				c1.291,0,2.271-0.916,2.271-2.484V161.436z"/>
			<path fill="#000319" d="M328.156,165.21v-9.119h-3.743v-1.176h8.956v1.176h-3.808v9.119H328.156z"/>
			<path fill="#000319" d="M339.76,162.808c-0.359,1.618-1.552,2.599-3.333,2.599c-2.125,0-3.678-1.439-3.678-3.66
				c0-2.256,1.553-3.873,3.612-3.873c2.271,0,3.432,1.617,3.432,3.563v0.539h-5.688c0.066,1.389,1.063,2.369,2.337,2.369
				c1.193,0,1.896-0.571,2.19-1.667L339.76,162.808z M338.404,161.092c-0.049-1.144-0.686-2.189-2.042-2.189
				c-1.291,0-2.06,1.013-2.223,2.189H338.404z"/>
			<path fill="#000319" d="M344.452,157.873c2.092,0,3.219,1.405,3.366,3.121l-1.193,0.081c-0.114-1.258-0.865-2.107-2.19-2.107
				c-1.34,0-2.255,1.029-2.255,2.68s0.915,2.681,2.255,2.681c1.324,0,2.075-0.899,2.19-2.157l1.193,0.114
				c-0.147,1.732-1.274,3.121-3.366,3.121c-2.157,0-3.661-1.487-3.661-3.759S342.295,157.873,344.452,157.873z"/>
			<path fill="#000319" d="M350.566,165.21h-1.356v-10.295h1.356v4.429c0.343-0.866,1.308-1.471,2.369-1.471
				c1.863,0,2.615,1.241,2.615,2.908v4.429h-1.356v-4.314c0-1.192-0.572-1.944-1.7-1.944c-1.078,0-1.928,0.85-1.928,2.157V165.21z"
				/>
			<path fill="#000319" d="M358.673,165.21h-1.356v-7.142h1.356v1.275c0.343-0.866,1.308-1.471,2.369-1.471
				c1.863,0,2.615,1.241,2.615,2.908v4.429h-1.357v-4.314c0-1.192-0.572-1.944-1.7-1.944c-1.078,0-1.928,0.85-1.928,2.157V165.21z"
				/>
			<path fill="#000319" d="M368.594,165.406c-2.092,0-3.628-1.536-3.628-3.759c0-2.223,1.536-3.774,3.628-3.774
				c2.108,0,3.661,1.552,3.661,3.774C372.255,163.87,370.702,165.406,368.594,165.406z M368.594,164.36
				c1.455,0,2.271-1.128,2.271-2.713c0-1.602-0.816-2.713-2.271-2.713c-1.438,0-2.238,1.111-2.238,2.713
				C366.356,163.233,367.156,164.36,368.594,164.36z"/>
			<path fill="#000319" d="M375.019,154.915v10.295h-1.356v-10.295H375.019z"/>
			<path fill="#000319" d="M380.036,165.406c-2.092,0-3.628-1.536-3.628-3.759c0-2.223,1.536-3.774,3.628-3.774
				c2.108,0,3.661,1.552,3.661,3.774C383.697,163.87,382.145,165.406,380.036,165.406z M380.036,164.36
				c1.455,0,2.272-1.128,2.272-2.713c0-1.602-0.816-2.713-2.272-2.713c-1.438,0-2.238,1.111-2.238,2.713
				C377.798,163.233,378.599,164.36,380.036,164.36z"/>
			<path fill="#000319" d="M387.964,162.727c-0.588,0-1.127-0.099-1.568-0.295c-0.245,0.148-0.474,0.376-0.474,0.703
				c0,0.393,0.245,0.621,0.865,0.621h2.795c1.553,0,2.37,0.817,2.37,1.929c0,1.781-1.994,2.467-4.118,2.467
				c-1.929,0-3.53-0.605-3.53-1.928c0-0.817,0.588-1.34,1.471-1.504c-0.653-0.212-0.948-0.686-0.948-1.226
				c0-0.621,0.441-1.063,1.079-1.34c-0.589-0.425-0.932-1.063-0.932-1.847c0-1.504,1.242-2.435,2.99-2.435
				c0.899,0,1.7,0.277,2.239,0.735c0.376-0.572,1.046-0.981,1.814-0.981v1.177c-0.475,0-1.014,0.115-1.373,0.295
				c0.212,0.343,0.343,0.751,0.343,1.209C390.987,161.795,389.73,162.727,387.964,162.727z M387.834,167.253
				c1.634,0,2.811-0.393,2.811-1.422c0-0.653-0.539-0.883-1.373-0.883h-2.304c-0.735,0-1.373,0.246-1.373,1.014
				C385.595,166.86,386.51,167.253,387.834,167.253z M387.981,158.755c-0.997,0-1.618,0.556-1.618,1.569
				c0,0.98,0.621,1.536,1.618,1.536c1.014,0,1.635-0.556,1.635-1.536C389.615,159.311,388.994,158.755,387.981,158.755z"/>
			<path fill="#000319" d="M393.98,167.956l1.16-2.762l-3.007-7.126h1.422l2.271,5.491h0.065l2.189-5.491h1.341l-4.118,9.888H393.98
				z"/>
		</g>
	</g>
</g>
</svg>
