<?xml version="1.0" encoding="utf-8"?>
<!-- Generator: Adobe Illustrator 17.0.0, SVG Export Plug-In . SVG Version: 6.00 Build 0)  -->
<!DOCTYPE svg PUBLIC "-//W3C//DTD SVG 1.1//EN" "http://www.w3.org/Graphics/SVG/1.1/DTD/svg11.dtd">
<svg version="1.1" id="Layer_1" xmlns="http://www.w3.org/2000/svg" xmlns:xlink="http://www.w3.org/1999/xlink" x="0px" y="0px"
	 width="300px" height="300px" viewBox="270.945 147.64 300 300" enable-background="new 270.945 147.64 300 300"
	 xml:space="preserve">
<g>
	<path fill="#000319" d="M343.995,341.962L343.995,341.962l5.507-23.139h5.746l-7.805,31.417h-6.761l-5.362-21.307l-5.411,21.307
		h-6.732l-7.806-31.417h5.986l5.576,23.089l5.842-23.089h5.33L343.995,341.962z"/>
	<path fill="#000319" d="M381.605,342.76c0.335,2.643,2.251,3.99,5.172,3.99c2.107,0,3.83-0.748,3.83-2.344
		c0-1.496-0.957-2.144-3.065-2.493l-3.352-0.598c-4.501-0.748-6.991-2.493-6.991-6.583c0-4.189,3.4-7.081,8.763-7.081
		c5.842,0,9.338,2.743,9.721,7.63l-4.74,0.199c-0.383-2.493-2.011-3.74-5.029-3.74c-2.059,0-3.4,0.947-3.4,2.443
		c0,1.197,0.766,1.895,2.299,2.144l4.022,0.698c4.454,0.748,7.087,2.693,7.087,6.832c0,4.488-3.735,6.982-9.194,6.982
		c-5.507,0-9.721-2.493-10.104-7.879L381.605,342.76z"/>
	<path fill="#000319" d="M504.378,318.823v31.417h-5.747v-31.417H504.378z"/>
	<g>
		<path fill="#000319" d="M495.355,346.6c-0.91,0-1.485-0.549-1.485-1.696v-8.777c0-5.785-3.591-8.478-9.051-8.478
			c-5.603,0-8.906,3.142-9.625,7.63l5.219,0.499c0.479-2.144,1.772-3.64,4.166-3.64c2.442,0,3.687,1.496,3.687,3.94v0.683
			l-5.794,1.012c-4.788,0.997-8.044,2.743-8.044,6.932c0,3.79,2.682,6.084,7.087,6.084c3.112,0,6.522-1.608,7.183-3.119
			c0.403,1.634,2.059,3.069,4.453,3.069c1.227,0,2.138-0.181,2.875-0.507v-3.707C495.801,346.57,495.578,346.6,495.355,346.6z
			 M488.268,340.715c0,3.541-2.298,5.934-5.315,5.934c-1.82,0-2.921-0.898-2.921-2.394c0-2.194,1.772-2.643,4.262-3.192l3.975-0.732
			L488.268,340.715L488.268,340.715z"/>
	</g>
	<g>
		<path fill="#000319" d="M408.129,346.051c-1.724,0-2.538-0.848-2.538-2.743v-10.871h4.59v-4.189h-4.59v-6.084h-3.987
			c0,0-0.061,1.919-0.356,2.992c-0.296,1.074-0.876,3.142-2.935,3.491l-1.436,0.249v3.541h3.017v12.218
			c0,4.688,2.73,6.184,5.986,6.184c1.767,0,3.126-0.333,4.302-0.92v-4.273C409.481,345.889,408.796,346.051,408.129,346.051z"/>
	</g>
	<g>
		<path fill="#000319" d="M447.268,327.783c-2.921,0-5.062,2.025-5.89,3.984v-3.519h-5.747v21.992h5.747v-10.871
			c0-3.989,2.01-6.184,4.98-6.184c0.94,0,1.681,0.151,2.405,0.44l1.206-5.128C449.333,328.062,448.402,327.783,447.268,327.783z"/>
	</g>
	<g>
		<path fill="#000319" d="M364.538,346.301c-3.113,0-5.555-2.294-5.746-5.535h15.85v-2.144c0-5.984-3.543-10.971-10.439-10.971
			c-6.321,0-11.062,4.987-11.062,11.918c0,6.932,4.693,11.27,11.206,11.27c5.111,0,8.638-2.583,9.943-6.987l-4.585-0.913
			C368.845,345.171,367.21,346.301,364.538,346.301z M364.155,332.038c3.208,0,4.693,2.444,4.884,4.987h-10.152
			C359.414,334.282,360.994,332.038,364.155,332.038z"/>
	</g>
	<g>
		<path fill="#000319" d="M422.733,346.301c-3.113,0-5.555-2.294-5.746-5.535h15.85v-2.144c0-5.984-3.543-10.971-10.439-10.971
			c-6.321,0-11.062,4.987-11.062,11.918c0,6.932,4.693,11.27,11.206,11.27c5.111,0,8.638-2.583,9.943-6.987l-4.585-0.913
			C427.04,345.171,425.406,346.301,422.733,346.301z M422.35,332.038c3.208,0,4.693,2.444,4.884,4.987h-10.152
			C417.61,334.282,419.19,332.038,422.35,332.038z"/>
	</g>
	<path fill="#000319" d="M512.203,342.76c0.335,2.643,2.251,3.99,5.172,3.99c2.107,0,3.83-0.748,3.83-2.344
		c0-1.496-0.957-2.144-3.065-2.493l-3.352-0.598c-4.501-0.748-6.991-2.493-6.991-6.583c0-4.189,3.4-7.081,8.763-7.081
		c5.842,0,9.338,2.743,9.721,7.63l-4.74,0.199c-0.383-2.493-2.011-3.74-5.029-3.74c-2.059,0-3.4,0.947-3.4,2.443
		c0,1.197,0.766,1.895,2.299,2.144l4.022,0.698c4.454,0.748,7.087,2.693,7.087,6.832c0,4.488-3.735,6.982-9.194,6.982
		c-5.507,0-9.721-2.493-10.104-7.879L512.203,342.76z"/>
	<path fill="#000319" d="M471.724,318.825h-4.934h-0.58v11.688c-1.583-1.778-3.809-2.855-6.671-2.855h-0.034
		c-6.277,0-9.536,5.14-9.536,11.628c0,6.486,3.257,11.575,9.532,11.578c2.852-0.001,5.092-1.002,6.709-2.675v2.076h5.75v-31.44
		L471.724,318.825L471.724,318.825z M461.224,346.178l0.007-0.006c-3.594,0-5.463-2.745-5.463-6.887
		c0-4.192,1.869-6.937,5.463-6.937l-0.007,0.006c3.259,0,5.607,2.495,5.607,6.488v0.848
		C466.831,343.732,464.483,346.178,461.224,346.178z"/>
</g>
<g>
	<polygon fill="#000319" points="448.199,291.665 448.199,284.579 445.314,284.579 445.314,282.71 453.21,282.71 453.21,284.579 
		450.286,284.579 450.286,291.665 	"/>
	<g>
		<path fill="#000319" d="M420.967,289.876c-1.32,0-2.172-1.055-2.172-2.688s0.853-2.689,2.172-2.689
			c0.83,0,1.452,0.374,1.812,1.096l1.943-0.664c-0.609-1.52-1.932-2.382-3.754-2.382c-2.504,0-4.322,1.951-4.322,4.639
			c0,2.688,1.818,4.639,4.322,4.639c1.778,0,3.081-0.817,3.709-2.264l-1.938-0.687C422.386,289.522,421.776,289.876,420.967,289.876
			z"/>
	</g>
	<path fill="#000319" d="M441.807,263.338c-7.803,0-10.096-6.9-12.119-12.987c-2.183-6.566-3.861-10.553-8.746-10.553
		c-4.884,0-6.562,3.986-8.743,10.552c-2.023,6.088-4.316,12.987-12.118,12.987c-7.803,0-10.095-6.9-12.118-12.987
		c-2.181-6.566-3.859-10.552-8.743-10.552c-0.982,0-1.778-0.796-1.778-1.778s0.796-1.778,1.778-1.778
		c7.803,0,10.096,6.9,12.118,12.987c2.181,6.566,3.859,10.552,8.743,10.552c4.884,0,6.562-3.986,8.743-10.552
		c2.023-6.088,4.316-12.987,12.118-12.987c7.804,0,10.097,6.9,12.12,12.987c2.183,6.566,3.86,10.552,8.745,10.552
		s6.563-3.987,8.746-10.552c2.024-6.087,4.317-12.987,12.12-12.987c0.982,0,1.778,0.796,1.778,1.778s-0.796,1.778-1.778,1.778
		c-4.885,0-6.563,3.987-8.746,10.552C451.904,256.439,449.611,263.338,441.807,263.338z"/>
	<path fill="#000319" d="M435.291,272.599c-1.182,0.229-2.086,0.084-2.79-0.379c-2.16-1.42-2.547-5.439-3.167-9.406l0.004-0.002
		c-0.898-5.745-2.016-12.894-8.387-12.894c-0.004,0-0.006,0-0.007,0c-6.371,0-7.491,7.149-8.389,12.894
		c-0.62,3.966-1.007,7.985-3.167,9.405c-0.705,0.464-1.608,0.608-2.79,0.379c-3.933-0.804-4.399-6.255-4.659-14.478
		c-0.268-8.439-0.571-18.005-9.403-18.005c-0.982,0-1.778,0.796-1.778,1.778s0.796,1.778,1.778,1.778
		c5.023,0,5.56,5.501,5.847,14.561c0.245,7.698,0.521,16.423,7.52,17.854c0.614,0.119,1.203,0.178,1.766,0.178
		c1.425,0,2.686-0.379,3.761-1.135c3.141-2.206,3.902-7.066,4.637-11.766c0.962-6.151,1.77-9.887,4.876-9.887
		c0.002,0,0.002,0,0.004,0c3.104,0,3.913,3.736,4.874,9.887c0.735,4.7,1.496,9.56,4.636,11.766c1.502,1.054,3.362,1.376,5.547,0.953
		c6.981-1.427,7.257-10.152,7.501-17.851c0.287-9.06,0.824-14.56,5.847-14.56c0.982,0,1.778-0.796,1.778-1.778
		s-0.796-1.778-1.778-1.778c-8.831,0-9.135,9.565-9.402,18.004c-0.261,8.224-0.726,13.675-4.641,14.475L435.291,272.599z"/>
	<path fill="#000319" d="M451.172,263.87c-0.824-0.533-1.926-0.298-2.459,0.527l-13.455,20.794l-12.804-15.495l-0.845-1.019
		c-0.158-0.191-0.396-0.313-0.663-0.313c-0.268,0-0.507,0.123-0.665,0.315l-0.599,0.722l-13.048,15.79l-13.455-20.794
		c-0.534-0.825-1.634-1.06-2.459-0.527c-0.824,0.534-1.06,1.634-0.526,2.459l14.065,21.737l-2.494,3.018l-0.38,0.534
		c-0.661,0.947-1.013,2.071-1.02,3.247c-0.009,1.52,0.579,2.953,1.656,4.035c1.091,1.097,2.544,1.701,4.094,1.701V300.6
		c3.144-0.014,5.698-2.577,5.698-5.724c0-1.103-0.315-2.175-0.915-3.106l-2.239-3.446l12.287-14.868l12.286,14.867l-2.242,3.453
		c-0.596,0.924-0.911,1.996-0.911,3.1c0,3.148,2.554,5.71,5.698,5.724v0.001c1.551,0,3.004-0.604,4.094-1.701
		c1.076-1.083,1.665-2.516,1.656-4.035c-0.006-1.179-0.359-2.302-1.019-3.245l-2.874-3.554l14.065-21.737
		C452.232,265.505,451.997,264.404,451.172,263.87z M406.089,297.043v0.001c-0.587-0.007-1.135-0.237-1.546-0.651
		c-0.404-0.406-0.625-0.942-0.622-1.508c0.003-0.453,0.134-0.879,0.381-1.233l0.25-0.358l1.731-2.095l1.63,2.504
		c0.225,0.349,0.344,0.754,0.344,1.173C408.257,296.071,407.284,297.043,406.089,297.043z M437.97,294.885
		c0.004,0.566-0.218,1.101-0.622,1.507c-0.411,0.414-0.959,0.645-1.546,0.651v-0.001c-1.195,0-2.168-0.973-2.168-2.168
		c0-0.419,0.119-0.824,0.34-1.167l1.632-2.511l1.731,2.095l0.251,0.362C437.836,294.006,437.968,294.432,437.97,294.885z"/>
	<path fill="#000319" d="M422.165,219.863l14.849,21.1l17.094-26.987c0.525-0.829,1.622-1.077,2.453-0.551
		c0.83,0.526,1.076,1.624,0.551,2.454l-18.68,29.491l-0.572,0.908c-0.152,0.241-0.421,0.4-0.727,0.4c-0.288,0-0.544-0.142-0.7-0.36
		l-0.627-0.89l-14.863-21.121l-15.18,21.579l-0.3,0.433c-0.156,0.218-0.411,0.36-0.7,0.36c-0.306,0-0.574-0.16-0.727-0.4
		l-0.295-0.465l-18.961-29.936c-0.526-0.83-0.279-1.928,0.551-2.454c0.832-0.526,1.928-0.278,2.453,0.551l17.094,26.987
		l14.79-21.024l0.564-0.799c0.155-0.229,0.416-0.379,0.713-0.379c0.294,0,0.553,0.147,0.709,0.372L422.165,219.863z"/>
	<path fill="#000319" d="M421.941,193.905l14.749,32.882l7.378-23.211c0.297-0.937,1.298-1.453,2.233-1.156
		c0.936,0.298,1.453,1.297,1.156,2.233l-9.419,29.633l-0.098,0.309c-0.11,0.349-0.436,0.602-0.821,0.602
		c-0.343,0-0.639-0.201-0.777-0.491l-0.154-0.346l-15.272-34.048l-15.112,33.701l-0.314,0.705c-0.138,0.29-0.434,0.491-0.777,0.491
		c-0.385,0-0.711-0.253-0.821-0.602l-0.184-0.593l-9.274-29.404c-0.295-0.937,0.225-1.935,1.162-2.231
		c0.933-0.295,1.936,0.224,2.231,1.161l7.327,23.232l14.756-32.905l0.215-0.478c0.133-0.304,0.436-0.517,0.789-0.517
		c0.356,0,0.662,0.217,0.793,0.525L421.941,193.905z"/>
	<path fill="#000319" d="M392.82,282.7h-1.981l-3.472,8.965h2.13l0.599-1.592h3.468l0.599,1.592h2.13L392.82,282.7z
		 M390.757,288.315l1.073-2.85l1.073,2.85H390.757z"/>
</g>
<g>
	<path fill="#000319" d="M363.146,380.049c-3.007,0-5.115-2.174-5.115-5.345c0-3.17,2.108-5.344,5.115-5.344
		c2.99,0,5.115,2.174,5.115,5.344C368.261,377.876,366.137,380.049,363.146,380.049z M363.146,370.571
		c-2.223,0-3.661,1.617-3.661,4.134c0,2.518,1.438,4.135,3.661,4.135c2.222,0,3.644-1.617,3.644-4.135
		C366.79,372.188,365.369,370.571,363.146,370.571z"/>
	<path fill="#000319" d="M370.356,377.369c0.13,1.095,0.898,1.684,2.124,1.684c0.948,0,1.651-0.344,1.651-1.063
		c0-0.67-0.474-0.898-1.357-1.063l-1.21-0.212c-1.34-0.213-2.141-0.785-2.141-2.011c0-1.307,1.095-2.189,2.746-2.189
		c1.896,0,3.007,0.883,3.138,2.533l-1.095,0.065c-0.164-1.095-0.834-1.602-2.043-1.602c-0.899,0-1.487,0.408-1.487,1.063
		c0,0.571,0.359,0.865,1.095,0.996l1.34,0.213c1.438,0.245,2.288,0.784,2.288,2.075c0,1.422-1.258,2.19-2.925,2.19
		c-1.781,0-3.138-0.834-3.268-2.599L370.356,377.369z"/>
	<path fill="#000319" d="M378.169,369.557v10.296h-1.356v-10.296H378.169z"/>
	<path fill="#000319" d="M383.186,380.049c-2.092,0-3.628-1.536-3.628-3.759s1.536-3.775,3.628-3.775
		c2.108,0,3.661,1.553,3.661,3.775C386.847,378.513,385.294,380.049,383.186,380.049z M383.186,379.003
		c1.454,0,2.272-1.128,2.272-2.713c0-1.602-0.817-2.713-2.272-2.713c-1.439,0-2.239,1.111-2.239,2.713
		C380.947,377.876,381.748,379.003,383.186,379.003z"/>
	<path fill="#000319" d="M391.899,376.094c0.082,1.879,1.373,2.844,3.105,2.844c1.536,0,2.501-0.654,2.501-1.781
		c0-0.948-0.621-1.406-1.961-1.667l-2.043-0.393c-1.52-0.294-2.566-1.111-2.566-2.713c0-1.798,1.422-3.023,3.677-3.023
		c2.582,0,4.069,1.373,4.086,3.693l-1.291,0.065c-0.049-1.699-1.079-2.664-2.778-2.664c-1.487,0-2.32,0.703-2.32,1.847
		c0,1.014,0.67,1.341,1.863,1.569l1.863,0.359c1.879,0.359,2.828,1.177,2.828,2.827c0,1.896-1.634,2.991-3.857,2.991
		c-2.533,0-4.38-1.39-4.38-3.873L391.899,376.094z"/>
	<path fill="#000319" d="M403.635,372.515c2.092,0,3.219,1.405,3.366,3.121l-1.193,0.082c-0.114-1.259-0.866-2.108-2.19-2.108
		c-1.34,0-2.255,1.029-2.255,2.681c0,1.65,0.915,2.68,2.255,2.68c1.324,0,2.076-0.898,2.19-2.157l1.193,0.114
		c-0.147,1.732-1.274,3.122-3.366,3.122c-2.157,0-3.661-1.487-3.661-3.759S401.477,372.515,403.635,372.515z"/>
	<path fill="#000319" d="M409.749,379.853h-1.356v-10.296h1.356v4.429c0.343-0.866,1.307-1.471,2.37-1.471
		c1.863,0,2.615,1.242,2.615,2.909v4.429h-1.356v-4.315c0-1.193-0.572-1.945-1.7-1.945c-1.079,0-1.928,0.851-1.928,2.157
		L409.749,379.853L409.749,379.853z"/>
	<path fill="#000319" d="M419.67,380.049c-2.092,0-3.628-1.536-3.628-3.759s1.536-3.775,3.628-3.775c2.108,0,3.66,1.553,3.66,3.775
		C423.33,378.513,421.778,380.049,419.67,380.049z M419.67,379.003c1.454,0,2.271-1.128,2.271-2.713
		c0-1.602-0.817-2.713-2.271-2.713c-1.439,0-2.239,1.111-2.239,2.713C417.431,377.876,418.231,379.003,419.67,379.003z"/>
	<path fill="#000319" d="M427.957,380.049c-2.092,0-3.628-1.536-3.628-3.759s1.536-3.775,3.628-3.775c2.107,0,3.66,1.553,3.66,3.775
		C431.617,378.513,430.064,380.049,427.957,380.049z M427.957,379.003c1.454,0,2.271-1.128,2.271-2.713
		c0-1.602-0.817-2.713-2.271-2.713c-1.438,0-2.239,1.111-2.239,2.713C425.718,377.876,426.519,379.003,427.957,379.003z"/>
	<path fill="#000319" d="M434.381,369.557v10.296h-1.357v-10.296H434.381z"/>
	<path fill="#000319" d="M442.341,380.049c-2.092,0-3.628-1.536-3.628-3.759s1.536-3.775,3.628-3.775
		c2.108,0,3.661,1.553,3.661,3.775C446.002,378.513,444.449,380.049,442.341,380.049z M442.341,379.003
		c1.455,0,2.271-1.128,2.271-2.713c0-1.602-0.816-2.713-2.271-2.713c-1.438,0-2.238,1.111-2.238,2.713
		C440.102,377.876,440.903,379.003,442.341,379.003z"/>
	<path fill="#000319" d="M446.592,373.692v-0.98h1.095v-0.834c0-1.52,0.866-2.517,2.37-2.517c1.226,0,1.912,0.556,2.238,1.635
		l-0.931,0.326c-0.181-0.556-0.589-0.98-1.242-0.98c-0.752,0-1.095,0.54-1.095,1.39v0.98h2.01v0.98h-2.01v6.161h-1.341v-6.161
		H446.592z"/>
	<path fill="#000319" d="M460.026,369.557l4.282,10.296h-1.504l-1.242-3.023h-4.69l-1.21,3.023h-1.389l4.2-10.296H460.026z
		 M457.313,375.702h3.792l-1.88-4.575h-0.065L457.313,375.702z"/>
	<path fill="#000319" d="M469.704,374.068c-0.393-0.213-0.671-0.294-1.111-0.294c-1.03,0-1.798,0.931-1.798,2.304v3.775h-1.356
		v-7.142h1.356v1.454c0.262-0.817,0.997-1.65,2.026-1.65c0.441,0,0.768,0.114,1.013,0.327L469.704,374.068z"/>
	<path fill="#000319" d="M471.29,373.692h-1.079v-0.735l0.458-0.082c0.67-0.131,0.817-0.457,0.98-1.144l0.213-0.997h0.768v1.978
		h2.01v0.98h-2.01v4.33c0,0.638,0.262,0.932,0.883,0.932c0.457,0,0.932-0.195,1.34-0.425v0.915c-0.523,0.393-1.046,0.605-1.83,0.605
		c-1.014,0-1.732-0.475-1.732-1.863v-4.494H471.29z"/>
	<path fill="#000319" d="M476.668,377.369c0.131,1.095,0.898,1.684,2.124,1.684c0.948,0,1.65-0.344,1.65-1.063
		c0-0.67-0.474-0.898-1.357-1.063l-1.209-0.212c-1.34-0.213-2.141-0.785-2.141-2.011c0-1.307,1.095-2.189,2.745-2.189
		c1.896,0,3.007,0.883,3.138,2.533l-1.095,0.065c-0.163-1.095-0.833-1.602-2.043-1.602c-0.898,0-1.487,0.408-1.487,1.063
		c0,0.571,0.36,0.865,1.096,0.996l1.34,0.213c1.438,0.245,2.288,0.784,2.288,2.075c0,1.422-1.259,2.19-2.926,2.19
		c-1.781,0-3.138-0.834-3.269-2.599L476.668,377.369z"/>
	<path fill="#000319" d="M482.848,378.218h1.634v1.602c0,1.145-0.326,1.814-1.634,1.831v-0.801c0.604-0.05,0.767-0.278,0.767-0.997
		h-0.767V378.218z"/>
	<path fill="#000319" d="M321.743,388.976c2.941,0,4.608,1.814,4.805,4.461l-1.373,0.065c-0.114-1.895-1.307-3.317-3.432-3.317
		c-2.092,0-3.595,1.602-3.595,4.135s1.503,4.135,3.595,4.135c2.124,0,3.317-1.422,3.432-3.317l1.373,0.065
		c-0.196,2.647-1.863,4.461-4.805,4.461c-2.844,0-5.05-2.174-5.05-5.344C316.693,391.149,318.899,388.976,321.743,388.976z"/>
	<path fill="#000319" d="M331.174,399.664c-2.092,0-3.628-1.536-3.628-3.759s1.536-3.774,3.628-3.774
		c2.108,0,3.661,1.552,3.661,3.774C334.835,398.127,333.282,399.664,331.174,399.664z M331.174,398.618
		c1.454,0,2.272-1.128,2.272-2.713c0-1.602-0.817-2.713-2.272-2.713c-1.439,0-2.239,1.111-2.239,2.713
		C328.935,397.49,329.736,398.618,331.174,398.618z"/>
	<path fill="#000319" d="M344.609,392.13c1.863,0,2.517,1.291,2.517,2.908v4.429h-1.357v-4.314c0-1.192-0.49-1.944-1.585-1.944
		c-1.014,0-1.831,0.85-1.831,2.157v4.102h-1.356v-4.314c0-1.192-0.49-1.944-1.585-1.944c-1.013,0-1.814,0.85-1.814,2.157v4.102
		h-1.356v-7.142h1.356v1.275c0.343-0.866,1.176-1.471,2.271-1.471c1.274,0,2.026,0.62,2.337,1.552
		C342.583,392.8,343.465,392.13,344.609,392.13z"/>
	<path fill="#000319" d="M357.277,392.13c1.863,0,2.517,1.291,2.517,2.908v4.429h-1.356v-4.314c0-1.192-0.49-1.944-1.585-1.944
		c-1.014,0-1.83,0.85-1.83,2.157v4.102h-1.357v-4.314c0-1.192-0.49-1.944-1.585-1.944c-1.013,0-1.814,0.85-1.814,2.157v4.102h-1.356
		v-7.142h1.356v1.275c0.343-0.866,1.176-1.471,2.271-1.471c1.274,0,2.026,0.62,2.337,1.552
		C355.251,392.8,356.133,392.13,357.277,392.13z"/>
	<path fill="#000319" d="M366.383,392.326h1.356v7.142h-1.356v-1.258c-0.343,0.85-1.259,1.454-2.337,1.454
		c-1.863,0-2.55-1.226-2.55-2.893v-4.445h1.356v4.314c0,1.193,0.523,1.961,1.651,1.961c1.062,0,1.879-0.85,1.879-2.173v-4.102
		H366.383z"/>
	<path fill="#000319" d="M370.96,399.467h-1.356v-7.142h1.356v1.275c0.343-0.866,1.307-1.471,2.37-1.471
		c1.863,0,2.615,1.241,2.615,2.908v4.429h-1.356v-4.314c0-1.192-0.572-1.944-1.7-1.944c-1.079,0-1.928,0.85-1.928,2.157
		L370.96,399.467L370.96,399.467z"/>
	<path fill="#000319" d="M377.679,389.172h1.405v1.536h-1.405V389.172z M379.068,392.326v7.142h-1.357v-7.142H379.068z"/>
	<path fill="#000319" d="M384.118,392.13c2.092,0,3.219,1.405,3.366,3.121l-1.193,0.081c-0.114-1.258-0.866-2.108-2.19-2.108
		c-1.34,0-2.255,1.029-2.255,2.68s0.915,2.681,2.255,2.681c1.324,0,2.076-0.899,2.19-2.157l1.193,0.114
		c-0.147,1.733-1.274,3.121-3.366,3.121c-2.157,0-3.661-1.487-3.661-3.759C380.457,393.633,381.961,392.13,384.118,392.13z"/>
	<path fill="#000319" d="M394.628,398.062c0,0.376,0.212,0.556,0.556,0.556c0.163,0,0.425-0.049,0.621-0.163v0.735
		c-0.245,0.245-0.539,0.425-1.095,0.425c-0.735,0-1.258-0.556-1.34-1.405c-0.393,0.833-1.406,1.454-2.566,1.454
		c-1.389,0-2.288-0.752-2.288-1.978c0-1.356,1.161-1.912,2.876-2.255l1.928-0.393v-0.277c0-0.98-0.572-1.585-1.569-1.585
		c-1.029,0-1.585,0.605-1.797,1.438l-1.21-0.163c0.278-1.34,1.34-2.32,3.023-2.32c1.797,0,2.86,0.915,2.86,2.729L394.628,398.062
		L394.628,398.062z M393.32,395.938l-1.602,0.343c-1.128,0.245-1.847,0.458-1.847,1.324c0,0.604,0.409,1.062,1.226,1.062
		c1.259,0,2.223-0.947,2.223-2.386V395.938L393.32,395.938z"/>
	<path fill="#000319" d="M397.032,393.306h-1.079v-0.735l0.458-0.081c0.67-0.131,0.817-0.458,0.98-1.145l0.212-0.997h0.768v1.978
		h2.01v0.98h-2.01v4.331c0,0.638,0.262,0.932,0.883,0.932c0.458,0,0.931-0.196,1.34-0.425v0.915
		c-0.523,0.393-1.046,0.604-1.831,0.604c-1.013,0-1.732-0.474-1.732-1.863L397.032,393.306L397.032,393.306z"/>
	<path fill="#000319" d="M401.756,389.172h1.405v1.536h-1.405V389.172z M403.145,392.326v7.142h-1.356v-7.142H403.145z"/>
	<path fill="#000319" d="M408.163,399.664c-2.092,0-3.628-1.536-3.628-3.759s1.536-3.774,3.628-3.774
		c2.108,0,3.661,1.552,3.661,3.774C411.824,398.127,410.271,399.664,408.163,399.664z M408.163,398.618
		c1.454,0,2.272-1.128,2.272-2.713c0-1.602-0.817-2.713-2.272-2.713c-1.439,0-2.239,1.111-2.239,2.713
		C405.924,397.49,406.725,398.618,408.163,398.618z"/>
	<path fill="#000319" d="M414.587,399.467h-1.356v-7.142h1.356v1.275c0.343-0.866,1.307-1.471,2.37-1.471
		c1.863,0,2.615,1.241,2.615,2.908v4.429h-1.356v-4.314c0-1.192-0.572-1.944-1.7-1.944c-1.079,0-1.928,0.85-1.928,2.157
		L414.587,399.467L414.587,399.467z"/>
	<path fill="#000319" d="M430.032,398.062c0,0.376,0.213,0.556,0.556,0.556c0.163,0,0.425-0.049,0.621-0.163v0.735
		c-0.245,0.245-0.539,0.425-1.095,0.425c-0.735,0-1.259-0.556-1.34-1.405c-0.393,0.833-1.406,1.454-2.566,1.454
		c-1.389,0-2.288-0.752-2.288-1.978c0-1.356,1.161-1.912,2.877-2.255l1.928-0.393v-0.277c0-0.98-0.571-1.585-1.568-1.585
		c-1.029,0-1.585,0.605-1.798,1.438l-1.209-0.163c0.277-1.34,1.34-2.32,3.023-2.32c1.797,0,2.859,0.915,2.859,2.729L430.032,398.062
		L430.032,398.062z M428.725,395.938l-1.602,0.343c-1.127,0.245-1.847,0.458-1.847,1.324c0,0.604,0.409,1.062,1.226,1.062
		c1.259,0,2.223-0.947,2.223-2.386L428.725,395.938L428.725,395.938z"/>
	<path fill="#000319" d="M433.63,399.467h-1.357v-7.142h1.357v1.275c0.343-0.866,1.308-1.471,2.369-1.471
		c1.863,0,2.615,1.241,2.615,2.908v4.429h-1.357v-4.314c0-1.192-0.572-1.944-1.7-1.944c-1.078,0-1.928,0.85-1.928,2.157v4.102
		H433.63z"/>
	<path fill="#000319" d="M445.757,397.98c-0.326,0.883-1.225,1.684-2.565,1.684c-2.124,0-3.268-1.65-3.268-3.759
		s1.145-3.774,3.268-3.774c1.34,0,2.239,0.816,2.565,1.699v-4.657h1.357v10.295h-1.357V397.98z M445.773,395.693
		c0-1.553-0.98-2.468-2.271-2.468c-1.405,0-2.19,1.046-2.19,2.68c0,1.635,0.784,2.681,2.19,2.681c1.291,0,2.271-0.916,2.271-2.484
		V395.693z"/>
	<path fill="#000319" d="M455.059,399.467v-9.119h-3.743v-1.176h8.956v1.176h-3.808v9.119H455.059z"/>
	<path fill="#000319" d="M466.662,397.065c-0.359,1.618-1.552,2.599-3.333,2.599c-2.125,0-3.678-1.439-3.678-3.66
		c0-2.256,1.553-3.873,3.612-3.873c2.271,0,3.432,1.617,3.432,3.563v0.539h-5.688c0.065,1.389,1.063,2.369,2.337,2.369
		c1.193,0,1.895-0.571,2.19-1.667L466.662,397.065z M465.306,395.349c-0.049-1.144-0.686-2.19-2.042-2.19
		c-1.291,0-2.06,1.013-2.223,2.19H465.306z"/>
	<path fill="#000319" d="M471.354,392.13c2.092,0,3.219,1.405,3.366,3.121l-1.193,0.081c-0.114-1.258-0.865-2.108-2.189-2.108
		c-1.34,0-2.255,1.029-2.255,2.68s0.915,2.681,2.255,2.681c1.324,0,2.075-0.899,2.189-2.157l1.193,0.114
		c-0.148,1.733-1.274,3.121-3.366,3.121c-2.157,0-3.661-1.487-3.661-3.759C467.693,393.633,469.197,392.13,471.354,392.13z"/>
	<path fill="#000319" d="M477.468,399.467h-1.356v-10.295h1.356v4.429c0.343-0.866,1.308-1.471,2.369-1.471
		c1.863,0,2.615,1.241,2.615,2.908v4.429h-1.356v-4.314c0-1.192-0.572-1.944-1.7-1.944c-1.078,0-1.928,0.85-1.928,2.157V399.467
		L477.468,399.467z"/>
	<path fill="#000319" d="M485.575,399.467h-1.356v-7.142h1.356v1.275c0.343-0.866,1.308-1.471,2.369-1.471
		c1.863,0,2.615,1.241,2.615,2.908v4.429h-1.357v-4.314c0-1.192-0.572-1.944-1.7-1.944c-1.078,0-1.928,0.85-1.928,2.157v4.102
		H485.575z"/>
	<path fill="#000319" d="M495.496,399.664c-2.092,0-3.628-1.536-3.628-3.759s1.536-3.774,3.628-3.774
		c2.108,0,3.661,1.552,3.661,3.774C499.157,398.127,497.604,399.664,495.496,399.664z M495.496,398.618
		c1.455,0,2.271-1.128,2.271-2.713c0-1.602-0.816-2.713-2.271-2.713c-1.438,0-2.238,1.111-2.238,2.713
		C493.258,397.49,494.059,398.618,495.496,398.618z"/>
	<path fill="#000319" d="M501.921,389.172v10.295h-1.356v-10.295H501.921z"/>
	<path fill="#000319" d="M506.938,399.664c-2.092,0-3.628-1.536-3.628-3.759s1.536-3.774,3.628-3.774
		c2.108,0,3.661,1.552,3.661,3.774C510.6,398.127,509.047,399.664,506.938,399.664z M506.938,398.618
		c1.455,0,2.272-1.128,2.272-2.713c0-1.602-0.816-2.713-2.272-2.713c-1.437,0-2.238,1.111-2.238,2.713
		C504.7,397.49,505.501,398.618,506.938,398.618z"/>
	<path fill="#000319" d="M514.866,396.984c-0.588,0-1.127-0.099-1.568-0.295c-0.245,0.148-0.474,0.376-0.474,0.703
		c0,0.393,0.245,0.621,0.865,0.621h2.795c1.553,0,2.37,0.817,2.37,1.929c0,1.781-1.994,2.467-4.118,2.467
		c-1.929,0-3.53-0.604-3.53-1.928c0-0.817,0.588-1.34,1.471-1.504c-0.653-0.212-0.948-0.686-0.948-1.226
		c0-0.621,0.441-1.063,1.079-1.34c-0.589-0.425-0.932-1.063-0.932-1.847c0-1.504,1.242-2.435,2.99-2.435
		c0.899,0,1.7,0.277,2.239,0.735c0.376-0.572,1.046-0.982,1.814-0.982v1.177c-0.475,0-1.014,0.115-1.373,0.295
		c0.212,0.343,0.343,0.751,0.343,1.209C517.89,396.052,516.632,396.984,514.866,396.984z M514.736,401.51
		c1.634,0,2.811-0.393,2.811-1.422c0-0.653-0.539-0.883-1.373-0.883h-2.304c-0.735,0-1.373,0.246-1.373,1.014
		C512.497,401.118,513.412,401.51,514.736,401.51z M514.883,393.012c-0.997,0-1.618,0.556-1.618,1.569
		c0,0.98,0.621,1.536,1.618,1.536c1.014,0,1.635-0.556,1.635-1.536C516.518,393.568,515.896,393.012,514.883,393.012z"/>
	<path fill="#000319" d="M520.882,402.213l1.16-2.762l-3.007-7.126h1.422l2.272,5.491h0.065l2.19-5.491h1.341l-4.118,9.888H520.882z
		"/>
</g>
</svg>
