<?xml version="1.0" encoding="utf-8"?>
<!-- Generator: Adobe Illustrator 17.0.0, SVG Export Plug-In . SVG Version: 6.00 Build 0)  -->
<!DOCTYPE svg PUBLIC "-//W3C//DTD SVG 1.1//EN" "http://www.w3.org/Graphics/SVG/1.1/DTD/svg11.dtd">
<svg version="1.1" id="Layer_1" xmlns="http://www.w3.org/2000/svg" xmlns:xlink="http://www.w3.org/1999/xlink" x="0px" y="0px"
	 width="302px" height="100px" viewBox="18.079 18.65 302 100" enable-background="new 18.079 18.65 302 100" xml:space="preserve">
<g>
	<path fill="#000319" d="M136.553,51.839L136.553,51.839L142.06,28.7h5.746l-7.805,31.417h-6.761l-5.362-21.307l-5.411,21.307
		h-6.732L107.929,28.7h5.986l5.576,23.089l5.842-23.089h5.33L136.553,51.839z"/>
	<path fill="#000319" d="M174.164,52.637c0.335,2.643,2.251,3.989,5.172,3.989c2.107,0,3.83-0.748,3.83-2.344
		c0-1.496-0.957-2.144-3.065-2.493l-3.352-0.598c-4.501-0.748-6.991-2.493-6.991-6.583c0-4.189,3.4-7.081,8.763-7.081
		c5.842,0,9.338,2.743,9.721,7.63l-4.74,0.2c-0.383-2.493-2.011-3.74-5.029-3.74c-2.059,0-3.4,0.947-3.4,2.444
		c0,1.197,0.766,1.895,2.299,2.144l4.022,0.698c4.454,0.748,7.087,2.693,7.087,6.832c0,4.488-3.735,6.982-9.194,6.982
		c-5.507,0-9.721-2.493-10.104-7.879L174.164,52.637z"/>
	<path fill="#000319" d="M296.936,28.7v31.417h-5.747V28.7H296.936z"/>
	<g>
		<path fill="#000319" d="M287.913,56.476c-0.91,0-1.485-0.549-1.485-1.696v-8.777c0-5.785-3.591-8.478-9.051-8.478
			c-5.603,0-8.906,3.142-9.625,7.63l5.219,0.499c0.479-2.144,1.772-3.64,4.166-3.64c2.442,0,3.687,1.496,3.687,3.94v0.683
			l-5.794,1.012c-4.788,0.997-8.045,2.743-8.045,6.932c0,3.79,2.682,6.084,7.087,6.084c3.112,0,6.522-1.608,7.183-3.119
			c0.403,1.634,2.059,3.069,4.453,3.069c1.227,0,2.138-0.181,2.875-0.507v-3.707C288.36,56.447,288.136,56.476,287.913,56.476z
			 M280.826,50.592c0,3.541-2.298,5.934-5.315,5.934c-1.82,0-2.921-0.898-2.921-2.394c0-2.194,1.772-2.643,4.262-3.192l3.975-0.732
			L280.826,50.592L280.826,50.592z"/>
	</g>
	<g>
		<path fill="#000319" d="M200.687,55.928c-1.724,0-2.538-0.848-2.538-2.743V42.314h4.589v-4.189h-4.589v-6.084h-3.987
			c0,0-0.061,1.919-0.356,2.992c-0.296,1.074-0.876,3.142-2.936,3.491l-1.436,0.249v3.541h3.017v12.218
			c0,4.688,2.73,6.184,5.986,6.184c1.767,0,3.126-0.333,4.303-0.92v-4.273C202.039,55.766,201.354,55.928,200.687,55.928z"/>
	</g>
	<g>
		<path fill="#000319" d="M239.826,37.659c-2.921,0-5.062,2.025-5.89,3.984v-3.519h-5.747v21.992h5.747V49.245
			c0-3.989,2.01-6.184,4.98-6.184c0.941,0,1.681,0.151,2.405,0.441l1.206-5.128C241.892,37.938,240.961,37.659,239.826,37.659z"/>
	</g>
	<g>
		<path fill="#000319" d="M157.096,56.177c-3.113,0-5.555-2.294-5.746-5.535h15.85v-2.144c0-5.984-3.543-10.971-10.439-10.971
			c-6.321,0-11.062,4.987-11.062,11.919s4.693,11.27,11.205,11.27c5.111,0,8.638-2.583,9.943-6.987l-4.585-0.913
			C161.403,55.047,159.769,56.177,157.096,56.177z M156.713,41.915c3.208,0,4.693,2.444,4.884,4.987h-10.152
			C151.973,44.159,153.553,41.915,156.713,41.915z"/>
	</g>
	<g>
		<path fill="#000319" d="M215.291,56.177c-3.113,0-5.555-2.294-5.746-5.535h15.85v-2.144c0-5.984-3.543-10.971-10.439-10.971
			c-6.321,0-11.062,4.987-11.062,11.919s4.693,11.27,11.205,11.27c5.111,0,8.638-2.583,9.943-6.987l-4.585-0.913
			C219.598,55.047,217.964,56.177,215.291,56.177z M214.908,41.915c3.208,0,4.693,2.444,4.884,4.987H209.64
			C210.168,44.159,211.748,41.915,214.908,41.915z"/>
	</g>
	<path fill="#000319" d="M304.761,52.637c0.335,2.643,2.251,3.989,5.172,3.989c2.107,0,3.83-0.748,3.83-2.344
		c0-1.496-0.957-2.144-3.065-2.493l-3.352-0.598c-4.501-0.748-6.991-2.493-6.991-6.583c0-4.189,3.4-7.081,8.763-7.081
		c5.842,0,9.338,2.743,9.721,7.63l-4.74,0.2c-0.383-2.493-2.011-3.74-5.029-3.74c-2.059,0-3.4,0.947-3.4,2.444
		c0,1.197,0.766,1.895,2.299,2.144l4.022,0.698c4.454,0.748,7.087,2.693,7.087,6.832c0,4.488-3.735,6.982-9.194,6.982
		c-5.507,0-9.721-2.493-10.104-7.879L304.761,52.637z"/>
	<path fill="#000319" d="M264.282,28.701h-4.934h-0.58v11.688c-1.583-1.778-3.809-2.855-6.671-2.855h-0.034
		c-6.277,0-9.536,5.14-9.536,11.628c0,6.486,3.257,11.575,9.532,11.578c2.852-0.001,5.092-1.002,6.709-2.675v2.076h5.75v-31.44
		C264.518,28.701,264.282,28.701,264.282,28.701z M253.782,56.054l0.007-0.006c-3.594,0-5.463-2.745-5.463-6.887
		c0-4.192,1.869-6.937,5.463-6.937l-0.007,0.006c3.259,0,5.607,2.495,5.607,6.488v0.848
		C259.389,53.609,257.041,56.054,253.782,56.054z"/>
</g>
<g>
	<polygon fill="#000319" points="83.556,109.384 83.556,102.948 80.936,102.948 80.936,101.25 88.107,101.25 88.107,102.948 
		85.451,102.948 85.451,109.384 	"/>
	<g>
		<path fill="#000319" d="M58.822,107.759c-1.199,0-1.973-0.958-1.973-2.442s0.775-2.442,1.973-2.442
			c0.754,0,1.319,0.34,1.646,0.995l1.765-0.604c-0.553-1.381-1.755-2.163-3.41-2.163c-2.275,0-3.926,1.772-3.926,4.214
			c0,2.441,1.651,4.214,3.926,4.214c1.615,0,2.799-0.742,3.369-2.057l-1.761-0.624C60.11,107.437,59.556,107.759,58.822,107.759z"/>
	</g>
	<path fill="#000319" d="M77.75,83.655c-7.087,0-9.171-6.267-11.008-11.796c-1.983-5.964-3.506-9.585-7.944-9.585
		c-4.437,0-5.96,3.621-7.941,9.585c-1.837,5.529-3.92,11.796-11.007,11.796s-9.17-6.267-11.007-11.796
		c-1.981-5.964-3.505-9.585-7.941-9.585c-0.892,0-1.615-0.723-1.615-1.615c0-0.892,0.723-1.615,1.615-1.615
		c7.087,0,9.17,6.267,11.007,11.796c1.981,5.964,3.505,9.585,7.941,9.585c4.437,0,5.96-3.621,7.941-9.585
		c1.837-5.529,3.92-11.796,11.007-11.796c7.088,0,9.171,6.267,11.009,11.796c1.983,5.964,3.506,9.585,7.943,9.585
		c4.437,0,5.961-3.621,7.944-9.585c1.838-5.529,3.921-11.796,11.009-11.796c0.892,0,1.615,0.723,1.615,1.615
		c0,0.892-0.723,1.615-1.615,1.615c-4.437,0-5.961,3.621-7.944,9.585C86.921,77.388,84.838,83.655,77.75,83.655z"/>
	<path fill="#000319" d="M71.832,92.067c-1.074,0.208-1.895,0.076-2.535-0.344c-1.962-1.29-2.313-4.94-2.876-8.543l0.003-0.002
		c-0.816-5.218-1.831-11.712-7.618-11.712c-0.003,0-0.006,0-0.007,0c-5.787,0-6.804,6.494-7.619,11.711
		c-0.563,3.603-0.915,7.253-2.876,8.543c-0.64,0.421-1.461,0.552-2.535,0.344c-3.573-0.73-3.995-5.681-4.231-13.151
		c-0.244-7.666-0.519-16.354-8.541-16.354c-0.892,0-1.615,0.723-1.615,1.615s0.723,1.615,1.615,1.615
		c4.563,0,5.05,4.997,5.311,13.226c0.222,6.992,0.473,14.917,6.831,16.217c0.557,0.108,1.093,0.162,1.605,0.162
		c1.295,0,2.44-0.345,3.416-1.031c2.853-2.004,3.544-6.418,4.212-10.688c0.874-5.587,1.608-8.98,4.429-8.98c0.002,0,0.002,0,0.003,0
		c2.82,0,3.554,3.393,4.428,8.98c0.668,4.269,1.358,8.684,4.211,10.687c1.364,0.958,3.054,1.25,5.038,0.866
		c6.341-1.296,6.592-9.221,6.813-16.214c0.261-8.229,0.749-13.225,5.311-13.225c0.892,0,1.615-0.723,1.615-1.615
		s-0.723-1.615-1.615-1.615c-8.021,0-8.297,8.688-8.54,16.353c-0.237,7.47-0.66,12.421-4.215,13.148L71.832,92.067z"/>
	<path fill="#000319" d="M86.257,84.138c-0.749-0.485-1.749-0.271-2.234,0.479l-12.221,18.887L60.172,89.43l-0.767-0.926
		c-0.143-0.173-0.36-0.284-0.603-0.284s-0.461,0.111-0.604,0.286l-0.544,0.656l-11.852,14.342L33.581,84.617
		c-0.485-0.749-1.484-0.963-2.234-0.479c-0.749,0.484-0.963,1.484-0.478,2.233l12.775,19.744l-2.265,2.741l-0.345,0.484
		c-0.6,0.861-0.92,1.881-0.926,2.95c-0.008,1.38,0.526,2.682,1.504,3.665c0.991,0.996,2.311,1.545,3.719,1.545v-0.001
		c2.856-0.013,5.175-2.34,5.175-5.199c0-1.002-0.286-1.976-0.831-2.821l-2.034-3.13l11.16-13.504l11.159,13.504l-2.037,3.137
		c-0.541,0.84-0.827,1.813-0.827,2.815c0,2.859,2.32,5.187,5.175,5.199v0.001c1.408,0,2.728-0.549,3.719-1.545
		c0.978-0.984,1.512-2.285,1.504-3.665c-0.006-1.071-0.326-2.091-0.925-2.948l-2.611-3.229l12.775-19.743
		C87.219,85.623,87.005,84.623,86.257,84.138z M45.308,114.269L45.308,114.269c-0.533-0.005-1.031-0.215-1.404-0.591
		c-0.367-0.369-0.568-0.855-0.565-1.37c0.002-0.411,0.122-0.798,0.346-1.12l0.227-0.326l1.573-1.903l1.48,2.275
		c0.204,0.317,0.312,0.685,0.312,1.066C47.277,113.386,46.393,114.269,45.308,114.269z M74.265,112.309
		c0.003,0.514-0.198,1-0.565,1.369c-0.373,0.376-0.871,0.586-1.404,0.592v-0.001c-1.085,0-1.969-0.883-1.969-1.969
		c0-0.38,0.108-0.749,0.309-1.06l1.483-2.281l1.573,1.903l0.228,0.328C74.144,111.511,74.263,111.897,74.265,112.309z"/>
	<path fill="#000319" d="M59.91,44.167l13.487,19.165l15.526-24.513c0.477-0.753,1.474-0.978,2.228-0.5
		c0.754,0.477,0.978,1.475,0.5,2.229L74.684,67.334l-0.52,0.825c-0.139,0.218-0.383,0.363-0.66,0.363
		c-0.262,0-0.494-0.129-0.636-0.327l-0.569-0.808l-13.5-19.184l-13.788,19.6l-0.272,0.394c-0.142,0.198-0.374,0.327-0.636,0.327
		c-0.278,0-0.522-0.145-0.66-0.363l-0.268-0.422L25.953,40.548c-0.477-0.754-0.253-1.751,0.5-2.229
		c0.756-0.478,1.752-0.253,2.228,0.5l15.526,24.512l13.434-19.096l0.513-0.726c0.141-0.208,0.378-0.345,0.648-0.345
		c0.267,0,0.503,0.134,0.644,0.338L59.91,44.167z"/>
	<path fill="#000319" d="M59.706,20.588l13.396,29.867l6.701-21.082c0.27-0.851,1.179-1.319,2.029-1.05
		c0.85,0.27,1.32,1.178,1.049,2.029l-8.556,26.915l-0.089,0.281c-0.1,0.317-0.396,0.546-0.745,0.546
		c-0.312,0-0.581-0.182-0.706-0.446l-0.14-0.314l-13.87-30.926l-13.726,30.61l-0.285,0.64c-0.125,0.264-0.395,0.446-0.706,0.446
		c-0.35,0-0.646-0.23-0.745-0.546l-0.167-0.539l-8.424-26.708c-0.268-0.851,0.204-1.758,1.055-2.026
		c0.848-0.268,1.758,0.204,2.026,1.055l6.655,21.102L57.86,20.554l0.195-0.434c0.12-0.277,0.396-0.47,0.717-0.47
		c0.324,0,0.601,0.197,0.72,0.477L59.706,20.588z"/>
	<path fill="#000319" d="M33.256,101.241h-1.799l-3.154,8.143h1.934l0.544-1.446h3.15l0.544,1.446h1.934L33.256,101.241z
		 M31.382,106.341l0.974-2.589l0.974,2.589H31.382z"/>
</g>
<g>
	<g>
		<path fill="#000319" d="M114.366,89.926c-3.007,0-5.115-2.174-5.115-5.345c0-3.17,2.108-5.344,5.115-5.344
			c2.99,0,5.115,2.174,5.115,5.344C119.481,87.752,117.357,89.926,114.366,89.926z M114.366,80.447
			c-2.223,0-3.661,1.617-3.661,4.134c0,2.518,1.438,4.135,3.661,4.135c2.222,0,3.644-1.617,3.644-4.135
			C118.011,82.064,116.589,80.447,114.366,80.447z"/>
		<path fill="#000319" d="M121.576,87.245c0.13,1.095,0.898,1.684,2.124,1.684c0.948,0,1.651-0.344,1.651-1.063
			c0-0.67-0.474-0.898-1.356-1.063l-1.209-0.212c-1.34-0.213-2.141-0.785-2.141-2.011c0-1.307,1.095-2.189,2.746-2.189
			c1.896,0,3.007,0.883,3.138,2.533l-1.095,0.065c-0.164-1.095-0.834-1.602-2.042-1.602c-0.899,0-1.487,0.408-1.487,1.063
			c0,0.571,0.359,0.865,1.095,0.996l1.34,0.213c1.438,0.245,2.288,0.784,2.288,2.075c0,1.422-1.258,2.19-2.925,2.19
			c-1.781,0-3.138-0.834-3.268-2.599L121.576,87.245z"/>
		<path fill="#000319" d="M129.389,79.434v10.296h-1.356V79.434H129.389z"/>
		<path fill="#000319" d="M134.407,89.926c-2.092,0-3.628-1.536-3.628-3.759s1.536-3.775,3.628-3.775
			c2.108,0,3.661,1.553,3.661,3.775C138.067,88.39,136.514,89.926,134.407,89.926z M134.407,88.88c1.454,0,2.271-1.128,2.271-2.713
			c0-1.602-0.817-2.713-2.271-2.713c-1.439,0-2.239,1.111-2.239,2.713C132.167,87.752,132.968,88.88,134.407,88.88z"/>
		<path fill="#000319" d="M143.119,85.971c0.082,1.879,1.373,2.844,3.105,2.844c1.536,0,2.501-0.654,2.501-1.781
			c0-0.948-0.621-1.406-1.961-1.667l-2.043-0.393c-1.52-0.294-2.566-1.111-2.566-2.713c0-1.798,1.422-3.023,3.677-3.023
			c2.582,0,4.069,1.373,4.085,3.693l-1.291,0.065c-0.049-1.699-1.079-2.664-2.778-2.664c-1.487,0-2.32,0.703-2.32,1.847
			c0,1.014,0.67,1.341,1.863,1.569l1.863,0.359c1.879,0.359,2.828,1.177,2.828,2.827c0,1.896-1.634,2.991-3.857,2.991
			c-2.533,0-4.38-1.39-4.38-3.873L143.119,85.971z"/>
		<path fill="#000319" d="M154.855,82.392c2.092,0,3.219,1.405,3.366,3.121l-1.193,0.082c-0.114-1.259-0.866-2.108-2.19-2.108
			c-1.34,0-2.255,1.029-2.255,2.681c0,1.65,0.916,2.68,2.255,2.68c1.324,0,2.076-0.898,2.19-2.157l1.193,0.114
			c-0.147,1.732-1.274,3.122-3.366,3.122c-2.157,0-3.661-1.487-3.661-3.759C151.194,83.896,152.698,82.392,154.855,82.392z"/>
		<path fill="#000319" d="M160.969,89.73h-1.357V79.434h1.357v4.429c0.343-0.866,1.307-1.471,2.37-1.471
			c1.863,0,2.615,1.242,2.615,2.909v4.429h-1.356v-4.315c0-1.193-0.572-1.945-1.7-1.945c-1.079,0-1.928,0.851-1.928,2.157v4.103
			H160.969z"/>
		<path fill="#000319" d="M170.89,89.926c-2.092,0-3.628-1.536-3.628-3.759s1.536-3.775,3.628-3.775c2.108,0,3.66,1.553,3.66,3.775
			C174.55,88.39,172.998,89.926,170.89,89.926z M170.89,88.88c1.454,0,2.271-1.128,2.271-2.713c0-1.602-0.817-2.713-2.271-2.713
			c-1.439,0-2.239,1.111-2.239,2.713C168.651,87.752,169.451,88.88,170.89,88.88z"/>
		<path fill="#000319" d="M179.177,89.926c-2.092,0-3.628-1.536-3.628-3.759s1.536-3.775,3.628-3.775c2.107,0,3.66,1.553,3.66,3.775
			C182.837,88.39,181.284,89.926,179.177,89.926z M179.177,88.88c1.454,0,2.271-1.128,2.271-2.713c0-1.602-0.817-2.713-2.271-2.713
			c-1.439,0-2.239,1.111-2.239,2.713C176.938,87.752,177.739,88.88,179.177,88.88z"/>
		<path fill="#000319" d="M185.601,79.434v10.296h-1.356V79.434H185.601z"/>
		<path fill="#000319" d="M193.561,89.926c-2.092,0-3.628-1.536-3.628-3.759s1.536-3.775,3.628-3.775
			c2.108,0,3.661,1.553,3.661,3.775C197.222,88.39,195.669,89.926,193.561,89.926z M193.561,88.88c1.455,0,2.271-1.128,2.271-2.713
			c0-1.602-0.816-2.713-2.271-2.713c-1.438,0-2.238,1.111-2.238,2.713C191.323,87.752,192.123,88.88,193.561,88.88z"/>
		<path fill="#000319" d="M197.812,83.568v-0.98h1.095v-0.834c0-1.52,0.866-2.517,2.37-2.517c1.226,0,1.912,0.556,2.238,1.635
			l-0.931,0.326c-0.181-0.556-0.589-0.98-1.242-0.98c-0.752,0-1.095,0.54-1.095,1.39v0.98h2.01v0.98h-2.01v6.161h-1.341v-6.161
			H197.812z"/>
		<path fill="#000319" d="M211.246,79.434l4.282,10.296h-1.504l-1.242-3.024h-4.689l-1.21,3.024h-1.389l4.2-10.296H211.246z
			 M208.533,85.578h3.792l-1.88-4.575h-0.065L208.533,85.578z"/>
		<path fill="#000319" d="M220.924,83.944c-0.393-0.213-0.671-0.294-1.111-0.294c-1.03,0-1.798,0.931-1.798,2.304v3.775h-1.356
			v-7.141h1.356v1.454c0.262-0.817,0.997-1.65,2.026-1.65c0.441,0,0.768,0.114,1.013,0.327L220.924,83.944z"/>
		<path fill="#000319" d="M222.51,83.568h-1.079v-0.735l0.458-0.082c0.67-0.131,0.817-0.457,0.98-1.144l0.213-0.997h0.768v1.978
			h2.01v0.98h-2.01v4.33c0,0.638,0.262,0.932,0.883,0.932c0.457,0,0.932-0.195,1.34-0.425v0.915
			c-0.523,0.393-1.046,0.605-1.83,0.605c-1.014,0-1.732-0.475-1.732-1.863L222.51,83.568L222.51,83.568z"/>
		<path fill="#000319" d="M227.888,87.245c0.131,1.095,0.898,1.684,2.124,1.684c0.948,0,1.65-0.344,1.65-1.063
			c0-0.67-0.474-0.898-1.356-1.063l-1.209-0.212c-1.34-0.213-2.141-0.785-2.141-2.011c0-1.307,1.095-2.189,2.745-2.189
			c1.895,0,3.007,0.883,3.138,2.533l-1.095,0.065c-0.163-1.095-0.833-1.602-2.043-1.602c-0.898,0-1.487,0.408-1.487,1.063
			c0,0.571,0.36,0.865,1.096,0.996l1.34,0.213c1.438,0.245,2.288,0.784,2.288,2.075c0,1.422-1.259,2.19-2.926,2.19
			c-1.781,0-3.138-0.834-3.269-2.599L227.888,87.245z"/>
		<path fill="#000319" d="M234.068,88.095h1.634v1.602c0,1.145-0.326,1.814-1.634,1.831v-0.801c0.605-0.05,0.768-0.278,0.768-0.997
			h-0.768V88.095z"/>
	</g>
	<g>
		<path fill="#000319" d="M114.301,98.853c2.941,0,4.608,1.814,4.805,4.461l-1.373,0.065c-0.114-1.896-1.307-3.317-3.432-3.317
			c-2.092,0-3.595,1.602-3.595,4.135s1.503,4.135,3.595,4.135c2.124,0,3.317-1.422,3.432-3.317l1.373,0.065
			c-0.196,2.647-1.863,4.461-4.805,4.461c-2.844,0-5.05-2.174-5.05-5.344C109.251,101.025,111.457,98.853,114.301,98.853z"/>
		<path fill="#000319" d="M123.733,109.54c-2.092,0-3.628-1.536-3.628-3.759s1.536-3.774,3.628-3.774
			c2.108,0,3.661,1.552,3.661,3.774C127.393,108.004,125.841,109.54,123.733,109.54z M123.733,108.494
			c1.454,0,2.271-1.128,2.271-2.713c0-1.602-0.817-2.713-2.271-2.713c-1.438,0-2.239,1.111-2.239,2.713
			C121.493,107.366,122.294,108.494,123.733,108.494z"/>
		<path fill="#000319" d="M137.168,102.007c1.863,0,2.517,1.291,2.517,2.908v4.429h-1.356v-4.314c0-1.192-0.49-1.944-1.585-1.944
			c-1.014,0-1.831,0.85-1.831,2.157v4.102h-1.356v-4.314c0-1.192-0.49-1.944-1.585-1.944c-1.013,0-1.814,0.85-1.814,2.157v4.102
			h-1.356v-7.142h1.356v1.275c0.343-0.866,1.176-1.471,2.271-1.471c1.274,0,2.026,0.62,2.337,1.552
			C135.141,102.677,136.024,102.007,137.168,102.007z"/>
		<path fill="#000319" d="M149.836,102.007c1.863,0,2.517,1.291,2.517,2.908v4.429h-1.356v-4.314c0-1.192-0.49-1.944-1.585-1.944
			c-1.014,0-1.83,0.85-1.83,2.157v4.102h-1.357v-4.314c0-1.192-0.49-1.944-1.585-1.944c-1.013,0-1.814,0.85-1.814,2.157v4.102
			h-1.356v-7.142h1.356v1.275c0.343-0.866,1.176-1.471,2.271-1.471c1.274,0,2.026,0.62,2.337,1.552
			C147.809,102.677,148.692,102.007,149.836,102.007z"/>
		<path fill="#000319" d="M158.941,102.202h1.356v7.142h-1.356v-1.258c-0.343,0.85-1.259,1.454-2.337,1.454
			c-1.863,0-2.55-1.226-2.55-2.893v-4.445h1.356v4.314c0,1.193,0.523,1.961,1.651,1.961c1.062,0,1.879-0.85,1.879-2.173v-4.102
			H158.941z"/>
		<path fill="#000319" d="M163.519,109.344h-1.356v-7.142h1.356v1.275c0.343-0.866,1.307-1.471,2.37-1.471
			c1.863,0,2.615,1.241,2.615,2.908v4.429h-1.356v-4.314c0-1.192-0.572-1.944-1.7-1.944c-1.079,0-1.928,0.85-1.928,2.157v4.102
			H163.519z"/>
		<path fill="#000319" d="M170.237,99.049h1.405v1.536h-1.405V99.049z M171.626,102.202v7.142h-1.356v-7.142H171.626z"/>
		<path fill="#000319" d="M176.677,102.007c2.092,0,3.219,1.405,3.366,3.121l-1.193,0.081c-0.114-1.258-0.866-2.108-2.19-2.108
			c-1.34,0-2.255,1.029-2.255,2.68s0.916,2.681,2.255,2.681c1.324,0,2.076-0.899,2.19-2.157l1.193,0.114
			c-0.147,1.732-1.274,3.121-3.366,3.121c-2.157,0-3.661-1.487-3.661-3.759S174.519,102.007,176.677,102.007z"/>
		<path fill="#000319" d="M187.186,107.938c0,0.376,0.212,0.556,0.556,0.556c0.163,0,0.425-0.049,0.621-0.163v0.735
			c-0.245,0.245-0.539,0.425-1.095,0.425c-0.735,0-1.258-0.556-1.34-1.405c-0.393,0.833-1.406,1.454-2.566,1.454
			c-1.389,0-2.288-0.752-2.288-1.977c0-1.357,1.161-1.912,2.876-2.255l1.928-0.393v-0.277c0-0.98-0.572-1.585-1.569-1.585
			c-1.029,0-1.585,0.604-1.797,1.438l-1.21-0.163c0.278-1.34,1.34-2.32,3.023-2.32c1.797,0,2.86,0.915,2.86,2.729L187.186,107.938
			L187.186,107.938z M185.879,105.814l-1.602,0.343c-1.128,0.245-1.847,0.458-1.847,1.324c0,0.604,0.409,1.062,1.226,1.062
			c1.259,0,2.223-0.947,2.223-2.386V105.814z"/>
		<path fill="#000319" d="M189.591,103.183h-1.079v-0.735l0.458-0.081c0.67-0.131,0.817-0.458,0.98-1.145l0.212-0.997h0.768v1.978
			h2.01v0.98h-2.01v4.331c0,0.638,0.262,0.932,0.883,0.932c0.458,0,0.931-0.196,1.34-0.425v0.915
			c-0.523,0.393-1.046,0.604-1.831,0.604c-1.013,0-1.732-0.474-1.732-1.863L189.591,103.183L189.591,103.183z"/>
		<path fill="#000319" d="M194.315,99.049h1.405v1.536h-1.405V99.049z M195.704,102.202v7.142h-1.356v-7.142H195.704z"/>
		<path fill="#000319" d="M200.721,109.54c-2.092,0-3.628-1.536-3.628-3.759s1.536-3.774,3.628-3.774
			c2.108,0,3.661,1.552,3.661,3.774C204.382,108.004,202.829,109.54,200.721,109.54z M200.721,108.494
			c1.454,0,2.271-1.128,2.271-2.713c0-1.602-0.817-2.713-2.271-2.713c-1.439,0-2.239,1.111-2.239,2.713
			C198.482,107.366,199.283,108.494,200.721,108.494z"/>
		<path fill="#000319" d="M207.146,109.344h-1.356v-7.142h1.356v1.275c0.343-0.866,1.307-1.471,2.37-1.471
			c1.863,0,2.615,1.241,2.615,2.908v4.429h-1.356v-4.314c0-1.192-0.572-1.944-1.7-1.944c-1.079,0-1.928,0.85-1.928,2.157v4.102
			H207.146z"/>
		<path fill="#000319" d="M222.591,107.938c0,0.376,0.213,0.556,0.556,0.556c0.163,0,0.425-0.049,0.621-0.163v0.735
			c-0.245,0.245-0.539,0.425-1.095,0.425c-0.735,0-1.259-0.556-1.34-1.405c-0.393,0.833-1.406,1.454-2.566,1.454
			c-1.389,0-2.288-0.752-2.288-1.977c0-1.357,1.161-1.912,2.877-2.255l1.928-0.393v-0.277c0-0.98-0.571-1.585-1.568-1.585
			c-1.029,0-1.585,0.604-1.798,1.438l-1.209-0.163c0.277-1.34,1.34-2.32,3.023-2.32c1.797,0,2.859,0.915,2.859,2.729V107.938z
			 M221.283,105.814l-1.602,0.343c-1.127,0.245-1.847,0.458-1.847,1.324c0,0.604,0.409,1.062,1.226,1.062
			c1.259,0,2.223-0.947,2.223-2.386V105.814z"/>
		<path fill="#000319" d="M226.188,109.344h-1.356v-7.142h1.356v1.275c0.343-0.866,1.308-1.471,2.369-1.471
			c1.863,0,2.615,1.241,2.615,2.908v4.429h-1.357v-4.314c0-1.192-0.572-1.944-1.7-1.944c-1.078,0-1.928,0.85-1.928,2.157
			L226.188,109.344L226.188,109.344z"/>
		<path fill="#000319" d="M238.315,107.856c-0.326,0.883-1.225,1.684-2.565,1.684c-2.124,0-3.269-1.65-3.269-3.759
			s1.145-3.774,3.269-3.774c1.34,0,2.239,0.816,2.565,1.699v-4.657h1.357v10.295h-1.357V107.856z M238.332,105.569
			c0-1.553-0.98-2.468-2.271-2.468c-1.405,0-2.189,1.046-2.189,2.68c0,1.635,0.784,2.681,2.189,2.681
			c1.291,0,2.271-0.916,2.271-2.484V105.569z"/>
		<path fill="#000319" d="M247.617,109.344v-9.119h-3.743v-1.176h8.956v1.176h-3.808v9.119H247.617z"/>
		<path fill="#000319" d="M259.22,106.941c-0.359,1.618-1.552,2.599-3.333,2.599c-2.125,0-3.678-1.438-3.678-3.66
			c0-2.256,1.553-3.873,3.612-3.873c2.271,0,3.432,1.617,3.432,3.563v0.539h-5.687c0.065,1.389,1.063,2.369,2.337,2.369
			c1.193,0,1.896-0.571,2.19-1.667L259.22,106.941z M257.864,105.226c-0.049-1.144-0.686-2.189-2.042-2.189
			c-1.291,0-2.06,1.013-2.223,2.189H257.864z"/>
		<path fill="#000319" d="M263.913,102.007c2.092,0,3.219,1.405,3.366,3.121l-1.193,0.081c-0.114-1.258-0.865-2.108-2.19-2.108
			c-1.34,0-2.255,1.029-2.255,2.68s0.915,2.681,2.255,2.681c1.324,0,2.075-0.899,2.19-2.157l1.193,0.114
			c-0.147,1.732-1.274,3.121-3.366,3.121c-2.157,0-3.661-1.487-3.661-3.759S261.756,102.007,263.913,102.007z"/>
		<path fill="#000319" d="M270.026,109.344h-1.357V99.049h1.357v4.429c0.343-0.866,1.308-1.471,2.369-1.471
			c1.863,0,2.615,1.241,2.615,2.908v4.429h-1.357v-4.314c0-1.192-0.572-1.944-1.7-1.944c-1.078,0-1.928,0.85-1.928,2.157v4.101
			H270.026z"/>
		<path fill="#000319" d="M278.134,109.344h-1.356v-7.142h1.356v1.275c0.343-0.866,1.308-1.471,2.369-1.471
			c1.863,0,2.615,1.241,2.615,2.908v4.429h-1.357v-4.314c0-1.192-0.572-1.944-1.7-1.944c-1.078,0-1.928,0.85-1.928,2.157v4.102
			H278.134z"/>
		<path fill="#000319" d="M288.054,109.54c-2.092,0-3.628-1.536-3.628-3.759s1.536-3.774,3.628-3.774
			c2.108,0,3.661,1.552,3.661,3.774C291.716,108.004,290.163,109.54,288.054,109.54z M288.054,108.494
			c1.455,0,2.272-1.128,2.272-2.713c0-1.602-0.816-2.713-2.272-2.713c-1.438,0-2.238,1.111-2.238,2.713
			C285.816,107.366,286.617,108.494,288.054,108.494z"/>
		<path fill="#000319" d="M294.479,99.049v10.295h-1.356V99.049H294.479z"/>
		<path fill="#000319" d="M299.497,109.54c-2.092,0-3.628-1.536-3.628-3.759s1.536-3.774,3.628-3.774
			c2.108,0,3.661,1.552,3.661,3.774C303.158,108.004,301.605,109.54,299.497,109.54z M299.497,108.494
			c1.455,0,2.271-1.128,2.271-2.713c0-1.602-0.816-2.713-2.271-2.713c-1.438,0-2.238,1.111-2.238,2.713
			C297.259,107.366,298.059,108.494,299.497,108.494z"/>
		<path fill="#000319" d="M307.425,106.86c-0.588,0-1.127-0.099-1.568-0.295c-0.245,0.147-0.474,0.376-0.474,0.703
			c0,0.393,0.245,0.621,0.865,0.621h2.795c1.553,0,2.37,0.817,2.37,1.929c0,1.781-1.994,2.467-4.118,2.467
			c-1.929,0-3.53-0.604-3.53-1.928c0-0.817,0.588-1.34,1.471-1.504c-0.653-0.212-0.948-0.687-0.948-1.226
			c0-0.621,0.441-1.063,1.079-1.34c-0.589-0.425-0.932-1.063-0.932-1.847c0-1.504,1.242-2.435,2.99-2.435
			c0.899,0,1.7,0.277,2.239,0.735c0.376-0.572,1.046-0.981,1.814-0.981v1.177c-0.475,0-1.014,0.115-1.373,0.295
			c0.212,0.343,0.343,0.751,0.343,1.209C310.448,105.929,309.19,106.86,307.425,106.86z M307.295,111.387
			c1.634,0,2.811-0.393,2.811-1.422c0-0.653-0.539-0.883-1.373-0.883h-2.304c-0.735,0-1.373,0.246-1.373,1.014
			C305.055,110.994,305.97,111.387,307.295,111.387z M307.441,102.889c-0.997,0-1.618,0.556-1.618,1.569
			c0,0.98,0.621,1.536,1.618,1.536c1.014,0,1.635-0.556,1.635-1.536C309.076,103.444,308.455,102.889,307.441,102.889z"/>
		<path fill="#000319" d="M313.44,112.09l1.16-2.762l-3.007-7.126h1.422l2.271,5.491h0.066l2.189-5.491h1.341l-4.118,9.888H313.44z"
			/>
	</g>
</g>
</svg>
